<svg xmlns="http://www.w3.org/2000/svg" width="46" height="46" viewBox="0 0 46 46">
    <g fill="none" fill-rule="evenodd">
        <circle cx="23" cy="23" r="23" fill="#441FA3"/>
        <g fill="#FFF">
            <path d="M15.769 12.3c.022-1.696.911-3.263 2.356-4.151-.915-1.308-2.395-2.108-3.99-2.158-1.68-.176-3.308 1.005-4.164 1.005-.872 0-2.19-.988-3.608-.958-1.867.06-3.565 1.096-4.473 2.727-1.934 3.349-.491 8.27 1.361 10.977.927 1.325 2.01 2.805 3.428 2.753 1.387-.058 1.905-.885 3.58-.885 1.658 0 2.144.885 3.59.852 1.489-.025 2.426-1.332 3.32-2.67.667-.944 1.18-1.988 1.52-3.092-1.769-.748-2.918-2.48-2.92-4.4zM13.037 4.21c.812-.973 1.212-2.225 1.115-3.49-1.24.13-2.385.723-3.208 1.66-.812.924-1.223 2.133-1.144 3.361 1.257.013 2.45-.55 3.237-1.53z" transform="translate(13 11)"/>
        </g>
    </g>
</svg>
