<svg xmlns="http://www.w3.org/2000/svg" width="943" height="960" viewBox="0 0 943 960">
    <g fill="none" fill-rule="evenodd" opacity=".05">
        <path fill="#ED5262" d="M452.69.57c-9.424 18.435-274.88 163.16-320.863 302.39-26.23 78.496 279.188 289.488 267.203 311.493-18.994 34.868-102.65-21.304-178.45-82.449-57.053-46.024-112.75-94.014-115.866-112.924-6.997-4.997-65.163 144.828-54.57 162.628 8.64 14.518 68.665 58.08 135.793 97.763 83.718 49.506 174.692 84.416 172.092 98.982-4.214 23.669-108.257-13.587-120.33-14.195-12.07-.61-67.499-2.06-96.193-14.842-28.693-12.783-115.535-49.671-128.355-48.814 0 0 10.879 17.587 13.925 23.738 14.984 30.304 50.993 124.94 50.993 124.94s72.522 25.657 148.75 39.499c76.238 13.85 146.936 26.395 144.459 36.969-4.845 20.645-134.696 4.671-168.63-12.944-34.157-17.743-61.759-13.078-62.445-13.644.305 1.849 20.52 92.743 102.954 134.777 83.096 42.37 108.826 16.795 125.246 20.695 16.415 3.911 67.938 6.71 78.837-7.85 10.899-14.558 39.889-78.023 39.889-78.023zm.463.227l34.88 967.513s33.472 62.66 45.399 76.924c11.932 14.279 63.164 10.24 79.283 5.948 16.115-4.31 43.636 20.605 123.582-23.714 79.926-44.312 90.523-164.617 90.523-164.617s-25.49 23.902-58.74 42.683c-32.616 18.419-161.144 37.516-167.454 17.02-3.234-10.497 66.467-24.738 141.602-40.416 75.116-15.672 145.698-43.049 145.698-43.049s29.197-95.357 41.973-125.976c2.601-6.217 12.21-24.043 12.21-24.043-12.867-.538-96.932 38.389-124.674 51.842-27.731 13.46-82.98 16.258-94.981 17.155-12.009.907-113.237 40.632-119.132 17.104-3.644-14.479 84.691-51.539 164.755-103 64.17-41.262 120.996-86.21 128.595-100.916 9.298-18.03-59.506-166.202-66.138-161.044-1.742 18.949-53.934 68.215-107.619 115.554-71.31 62.893-150.809 121.006-172.275 86.652-13.538-21.681 276.318-239.748 244.532-317.492C739.29 157.039 463.876 18.978 453.153.797z"/>
        <path fill="#F47079" d="M440.316 13.384c-9.424 18.435-274.88 163.16-320.863 302.39-26.23 78.495 279.188 289.488 267.203 311.493-18.994 34.868-102.65-21.305-178.45-82.449-57.054-46.025-112.75-94.015-115.866-112.924-6.998-4.997-65.163 144.828-54.57 162.628 8.64 14.518 68.665 58.08 135.793 97.762 83.718 49.507 174.692 84.416 172.092 98.983-4.214 23.669-108.257-13.587-120.33-14.196-12.07-.608-67.499-2.06-96.193-14.842C100.44 749.447 13.597 712.56.777 713.416c0 0 10.878 17.587 13.925 23.738 14.984 30.304 50.993 124.94 50.993 124.94s72.522 25.656 148.749 39.499c76.24 13.85 146.937 26.394 144.46 36.968-4.845 20.646-134.696 4.672-168.63-12.943-34.157-17.743-61.757-23.908-62.443-24.474.304 1.849 20.518 103.572 102.951 145.607 83.097 42.37 108.827 16.795 125.246 20.695 16.416 3.91 67.939 6.71 78.838-7.85 10.899-14.559 39.889-78.023 39.889-78.023zm.463.226l34.88 967.514s33.472 62.66 45.399 76.924c11.932 14.279 63.164 10.24 79.283 5.948 16.115-4.31 43.636 20.604 123.582-23.714 79.926-44.312 90.523-164.617 90.523-164.617s-25.49 23.902-58.74 42.683c-32.616 18.419-161.144 37.515-167.454 17.02-3.234-10.498 66.467-24.738 141.602-40.416 75.116-15.672 145.698-43.049 145.698-43.049s29.197-95.358 41.973-125.976c2.601-6.217 12.21-24.044 12.21-24.044-12.867-.538-96.932 38.39-124.674 51.843-27.731 13.46-82.98 16.257-94.982 17.155-12.008.907-113.236 40.632-119.131 17.104-3.644-14.48 84.691-51.539 164.755-103 64.169-41.263 120.996-86.21 128.595-100.916 9.298-18.03-59.506-166.202-66.138-161.045-1.742 18.95-53.934 68.215-107.619 115.555-71.31 62.893-150.809 121.006-172.275 86.652-13.538-21.681 276.318-239.749 244.532-317.492C726.916 169.853 451.502 31.792 440.779 13.61z"/>
        <path stroke="#ED5262" stroke-width="2.65" d="M474.76 981.586c-14.471-262.947-18.807-414.168-13.007-453.664 8.7-59.245-3.777-198.1-4.01-223.279-.232-25.178-37.157-242.57-15.56-290.801"/>
    </g>
</svg>
