<svg xmlns="http://www.w3.org/2000/svg" xmlns:xlink="http://www.w3.org/1999/xlink" width="66" height="65" viewBox="0 0 66 65">
    <defs>
        <path id="a" d="M23.174.657l-2.363 2.06L18.45.657a.795.795 0 0 0-1.015 0l-2.364 2.06-2.362-2.06a.795.795 0 0 0-1.015 0L9.33 2.717 6.967.657a.795.795 0 0 0-1.015 0l-2.364 2.06L1.224.657C.768.262 0 .547 0 1.1v28.78c0 .556.774.836 1.224.442l2.364-2.062 2.363 2.06a.795.795 0 0 0 1.014 0l2.363-2.06 2.362 2.06a.795.795 0 0 0 1.015 0l2.363-2.06 2.362 2.06a.795.795 0 0 0 1.015 0l2.362-2.06 2.363 2.06c.455.394 1.23.116 1.23-.44V1.098c0-.554-.771-.837-1.226-.442zM9.648 20.494H5.821a.632.632 0 0 1-.638-.626c0-.345.286-.626.638-.626h3.827c.351 0 .638.28.638.626a.633.633 0 0 1-.638.626zM12.2 16.74H5.82a.632.632 0 0 1-.637-.626c0-.345.286-.625.638-.625H12.2c.35 0 .638.28.638.625a.633.633 0 0 1-.638.626zm-7.017-4.38c0-.345.286-.625.638-.625h5.103c.35 0 .638.28.638.625a.633.633 0 0 1-.638.626H5.821a.632.632 0 0 1-.638-.626zm8.293-3.128H5.82a.632.632 0 0 1-.638-.625c0-.346.286-.626.638-.626h7.655c.35 0 .638.28.638.626a.633.633 0 0 1-.638.625zm5.103 11.262h-1.276a.632.632 0 0 1-.638-.626c0-.345.286-.626.638-.626h1.276c.35 0 .638.28.638.626a.633.633 0 0 1-.638.626zm0-3.754h-1.276a.632.632 0 0 1-.638-.626c0-.345.286-.625.638-.625h1.276c.35 0 .638.28.638.625a.633.633 0 0 1-.638.626zm0-3.754h-1.276a.632.632 0 0 1-.638-.626c0-.345.286-.625.638-.625h1.276c.35 0 .638.28.638.625a.633.633 0 0 1-.638.626zm0-3.754h-1.276a.632.632 0 0 1-.638-.625c0-.346.286-.626.638-.626h1.276c.35 0 .638.28.638.626a.633.633 0 0 1-.638.625z"/>
    </defs>
    <g fill="none" fill-rule="evenodd">
        <path fill="#FFE3E5" d="M21.514 0h23.104c7.171 0 9.772.747 12.393 2.149a14.618 14.618 0 0 1 6.082 6.081c1.402 2.622 2.148 5.222 2.148 12.393v23.104c0 7.171-.746 9.772-2.148 12.394a14.618 14.618 0 0 1-6.082 6.08c-2.621 1.403-5.222 2.15-12.393 2.15H21.514c-7.171 0-9.771-.747-12.393-2.15a14.618 14.618 0 0 1-6.081-6.08C1.637 53.499.89 50.898.89 43.727V20.623c0-7.17.747-9.771 2.15-12.393A14.618 14.618 0 0 1 9.12 2.15C11.744.747 14.344 0 21.515 0z"/>
        <g transform="translate(21.313 17.133)">
            <mask id="b" fill="#fff">
                <use xlink:href="#a"/>
            </mask>
            <use fill="#FFF" fill-rule="nonzero" xlink:href="#a"/>
            <g fill="#D0021B" mask="url(#b)">
                <path d="M-5-1h33.016v33.016H-5z"/>
            </g>
        </g>
    </g>
</svg>
