<?xml version="1.0" encoding="UTF-8"?>
<svg width="48px" height="48px" viewBox="0 0 48 48" version="1.1" xmlns="http://www.w3.org/2000/svg" xmlns:xlink="http://www.w3.org/1999/xlink">
    <title>Section / Categories / Bills 1</title>
    <defs>
        <path d="M17.0957647,0.289538462 L15.3529412,1.80892308 L13.6101176,0.289538462 C13.4036471,0.109538462 13.068,0.109538462 12.8615294,0.289538462 L11.1176471,1.80892308 L9.37482353,0.289538462 C9.16835294,0.109538462 8.83270588,0.109538462 8.62623529,0.289538462 L6.88235294,1.80892308 L5.13952941,0.289538462 C4.93305882,0.109538462 4.59741176,0.109538462 4.39094118,0.289538462 L2.64705882,1.80892308 L0.903176471,0.289538462 C0.566470588,-0.00215384615 0,0.207384615 0,0.615384615 L0,21.8461538 C0,22.2569231 0.570705882,22.4636923 0.903176471,22.1729231 L2.64705882,20.6516923 L4.38988235,22.172 C4.59635294,22.352 4.932,22.352 5.13847059,22.172 L6.88129412,20.6516923 L8.62411765,22.172 C8.83058824,22.352 9.16623529,22.352 9.37270588,22.172 L11.1155294,20.6516923 L12.8583529,22.172 C13.0648235,22.352 13.4004706,22.352 13.6069412,22.172 L15.3497647,20.6516923 L17.0925882,22.172 C17.4282353,22.4618462 18,22.2569231 18,21.8461538 L18,0.615384615 C18,0.206461538 17.4314118,-0.00215384615 17.0957647,0.289538462 Z M7.11764706,14.9230769 L4.29411765,14.9230769 C4.03435294,14.9230769 3.82352941,14.7163077 3.82352941,14.4615385 C3.82352941,14.2067692 4.03435294,14 4.29411765,14 L7.11764706,14 C7.37647059,14 7.58823529,14.2067692 7.58823529,14.4615385 C7.58823529,14.7163077 7.37647059,14.9230769 7.11764706,14.9230769 Z M9,12.1538462 L4.29411765,12.1538462 C4.03435294,12.1538462 3.82352941,11.9470769 3.82352941,11.6923077 C3.82352941,11.4375385 4.03435294,11.2307692 4.29411765,11.2307692 L9,11.2307692 C9.25882353,11.2307692 9.47058824,11.4375385 9.47058824,11.6923077 C9.47058824,11.9470769 9.25882353,12.1538462 9,12.1538462 Z M3.82352941,8.92307692 C3.82352941,8.66830769 4.03435294,8.46153846 4.29411765,8.46153846 L8.05882353,8.46153846 C8.31764706,8.46153846 8.52941176,8.66830769 8.52941176,8.92307692 C8.52941176,9.17784615 8.31764706,9.38461538 8.05882353,9.38461538 L4.29411765,9.38461538 C4.03435294,9.38461538 3.82352941,9.17784615 3.82352941,8.92307692 Z M9.94117647,6.61538462 L4.29411765,6.61538462 C4.03435294,6.61538462 3.82352941,6.40861538 3.82352941,6.15384615 C3.82352941,5.89907692 4.03435294,5.69230769 4.29411765,5.69230769 L9.94117647,5.69230769 C10.2,5.69230769 10.4117647,5.89907692 10.4117647,6.15384615 C10.4117647,6.40861538 10.2,6.61538462 9.94117647,6.61538462 Z M13.7058824,14.9230769 L12.7647059,14.9230769 C12.5049412,14.9230769 12.2941176,14.7163077 12.2941176,14.4615385 C12.2941176,14.2067692 12.5049412,14 12.7647059,14 L13.7058824,14 C13.9647059,14 14.1764706,14.2067692 14.1764706,14.4615385 C14.1764706,14.7163077 13.9647059,14.9230769 13.7058824,14.9230769 Z M13.7058824,12.1538462 L12.7647059,12.1538462 C12.5049412,12.1538462 12.2941176,11.9470769 12.2941176,11.6923077 C12.2941176,11.4375385 12.5049412,11.2307692 12.7647059,11.2307692 L13.7058824,11.2307692 C13.9647059,11.2307692 14.1764706,11.4375385 14.1764706,11.6923077 C14.1764706,11.9470769 13.9647059,12.1538462 13.7058824,12.1538462 Z M13.7058824,9.38461538 L12.7647059,9.38461538 C12.5049412,9.38461538 12.2941176,9.17784615 12.2941176,8.92307692 C12.2941176,8.66830769 12.5049412,8.46153846 12.7647059,8.46153846 L13.7058824,8.46153846 C13.9647059,8.46153846 14.1764706,8.66830769 14.1764706,8.92307692 C14.1764706,9.17784615 13.9647059,9.38461538 13.7058824,9.38461538 Z M13.7058824,6.61538462 L12.7647059,6.61538462 C12.5049412,6.61538462 12.2941176,6.40861538 12.2941176,6.15384615 C12.2941176,5.89907692 12.5049412,5.69230769 12.7647059,5.69230769 L13.7058824,5.69230769 C13.9647059,5.69230769 14.1764706,5.89907692 14.1764706,6.15384615 C14.1764706,6.40861538 13.9647059,6.61538462 13.7058824,6.61538462 Z" id="path-1"></path>
    </defs>
    <g id="Page-1" stroke="none" stroke-width="1" fill="none" fill-rule="evenodd">
        <g id="GoMoney-Categories" transform="translate(-120.000000, -296.000000)">
            <g id="Section-/-Categories-/-Bills" transform="translate(120.000000, 296.000000)">
                <g id="Section-/-Categories-/-Bills-1">
                    <g id="Section-/-Categories-/-Bills">
                        <g id="Group-4-Copy-2">
                            <g id="Group-2">
                                <g id="Group-5">
                                    <path d="M15.3833112,-6.21504185e-16 L32.6166888,6.21504185e-16 C37.9658012,-3.61111829e-16 39.9055187,0.556953667 41.8610742,1.60279622 C43.8166298,2.64863878 45.3513612,4.18337022 46.3972038,6.13892578 C47.4430463,8.09448133 48,10.0341988 48,15.3833112 L48,32.6166888 C48,37.9658012 47.4430463,39.9055187 46.3972038,41.8610742 C45.3513612,43.8166298 43.8166298,45.3513612 41.8610742,46.3972038 C39.9055187,47.4430463 37.9658012,48 32.6166888,48 L15.3833112,48 C10.0341988,48 8.09448133,47.4430463 6.13892578,46.3972038 C4.18337022,45.3513612 2.64863878,43.8166298 1.60279622,41.8610742 C0.556953667,39.9055187 2.4074122e-16,37.9658012 -4.14336123e-16,32.6166888 L4.14336123e-16,15.3833112 C-2.4074122e-16,10.0341988 0.556953667,8.09448133 1.60279622,6.13892578 C2.64863878,4.18337022 4.18337022,2.64863878 6.13892578,1.60279622 C8.09448133,0.556953667 10.0341988,3.61111829e-16 15.3833112,-6.21504185e-16 Z" id="Rectangle" fill="#FFE3E5"></path>
                                    <g id="Icon-/-Fill-/-Bills" transform="translate(11.000000, 11.000000)">
                                        <g id="Color" transform="translate(4.000000, 1.769231)">
                                            <mask id="mask-2" fill="white">
                                                <use xlink:href="#path-1"></use>
                                            </mask>
                                            <use id="Mask" fill="#FFFFFF" fill-rule="nonzero" xlink:href="#path-1"></use>
                                            <g id="Colors-/-Black" mask="url(#mask-2)" fill="#F4626C">
                                                <g transform="translate(-3.705882, -0.769231)" id="Color">
                                                    <rect x="0" y="0" width="24.4705882" height="24"></rect>
                                                </g>
                                            </g>
                                        </g>
                                    </g>
                                </g>
                            </g>
                        </g>
                    </g>
                </g>
            </g>
        </g>
    </g>
</svg>