<?xml version="1.0" encoding="UTF-8"?>
<svg width="48px" height="48px" viewBox="0 0 48 48" version="1.1" xmlns="http://www.w3.org/2000/svg" xmlns:xlink="http://www.w3.org/1999/xlink">
    <title>Section / Categories / Bills</title>
    <defs>
        <path d="M22.75,5 C22.8880712,5 23,5.11192881 23,5.25 L23,5.25 L23,13.75 C23,14.8545695 22.1045695,15.75 21,15.75 L21,15.75 L2,15.75 C0.8954305,15.75 -1.88293825e-13,14.8545695 -1.88293825e-13,13.75 L-1.88293825e-13,13.75 L-1.88293825e-13,5.25 C-1.88293825e-13,5.11192881 0.111928813,5 0.25,5 L0.25,5 Z M19.5,11.5 L16.5,11.5 C16.0857864,11.5 15.75,11.8357864 15.75,12.25 C15.75,12.6642136 16.0857864,13 16.5,13 L16.5,13 L19.5,13 C19.9142136,13 20.25,12.6642136 20.25,12.25 C20.25,11.8357864 19.9142136,11.5 19.5,11.5 L19.5,11.5 Z M7,11.5 L4,11.5 C3.58578644,11.5 3.25,11.8357864 3.25,12.25 C3.25,12.6642136 3.58578644,13 4,13 L4,13 L7,13 C7.41421356,13 7.75,12.6642136 7.75,12.25 C7.75,11.8357864 7.41421356,11.5 7,11.5 L7,11.5 Z M12,7.5 L4,7.5 C3.58578644,7.5 3.25,7.83578644 3.25,8.25 C3.25,8.66421356 3.58578644,9 4,9 L4,9 L12,9 C12.4142136,9 12.75,8.66421355 12.75,8.25 C12.75,7.83578645 12.4142136,7.5 12,7.5 L12,7.5 Z M21,-1.02140518e-14 C22.1045695,-1.02140518e-14 23,0.8954305 23,2 L23,2 L23,3.5 C23,3.63807119 22.8880712,3.75 22.75,3.75 L22.75,3.75 L0.25,3.75 C0.111928813,3.75 -1.88293825e-13,3.63807119 -1.88293825e-13,3.5 L-1.88293825e-13,3.5 L-1.88293825e-13,2 C-1.88293825e-13,0.8954305 0.8954305,-1.02140518e-14 2,-1.02140518e-14 L2,-1.02140518e-14 Z" id="path-1"></path>
    </defs>
    <g id="Page-1" stroke="none" stroke-width="1" fill="none" fill-rule="evenodd">
        <g id="GoMoney-Categories" transform="translate(-208.000000, -483.000000)">
            <g id="Section-/-Categories-/-Bills" transform="translate(208.000000, 483.000000)">
                <g id="Group-4-Copy-2">
                    <g id="Group-2">
                        <g id="Group-5">
                            <path d="M15.3833112,-6.21504185e-16 L32.6166888,6.21504185e-16 C37.9658012,-3.61111829e-16 39.9055187,0.556953667 41.8610742,1.60279622 C43.8166298,2.64863878 45.3513612,4.18337022 46.3972038,6.13892578 C47.4430463,8.09448133 48,10.0341988 48,15.3833112 L48,32.6166888 C48,37.9658012 47.4430463,39.9055187 46.3972038,41.8610742 C45.3513612,43.8166298 43.8166298,45.3513612 41.8610742,46.3972038 C39.9055187,47.4430463 37.9658012,48 32.6166888,48 L15.3833112,48 C10.0341988,48 8.09448133,47.4430463 6.13892578,46.3972038 C4.18337022,45.3513612 2.64863878,43.8166298 1.60279622,41.8610742 C0.556953667,39.9055187 2.4074122e-16,37.9658012 -4.14336123e-16,32.6166888 L4.14336123e-16,15.3833112 C-2.4074122e-16,10.0341988 0.556953667,8.09448133 1.60279622,6.13892578 C2.64863878,4.18337022 4.18337022,2.64863878 6.13892578,1.60279622 C8.09448133,0.556953667 10.0341988,3.61111829e-16 15.3833112,-6.21504185e-16 Z" id="Rectangle" fill="#E3EDFF"></path>
                            <g id="Icon-/-BG-/-Card-Copy" transform="translate(11.000000, 11.000000)">
                                <g id="Icon-/-BG-/-Card">
                                    <g id="Group-5">
                                        <g id="credit-card-1">
                                            <rect id="Rectangle" x="0" y="0" width="26" height="26"></rect>
                                            <g id="Group" transform="translate(2.000000, 5.000000)">
                                                <g id="Color">
                                                    <mask id="mask-2" fill="white">
                                                        <use xlink:href="#path-1"></use>
                                                    </mask>
                                                    <use id="Mask" fill="#1B5ECE" fill-rule="nonzero" xlink:href="#path-1"></use>
                                                    <g id="Colors-/-Black" mask="url(#mask-2)" fill="#1B5ECE">
                                                        <g transform="translate(-2.166667, -5.416667)" id="Color">
                                                            <rect x="0" y="0" width="26.5098039" height="26"></rect>
                                                        </g>
                                                    </g>
                                                </g>
                                            </g>
                                        </g>
                                    </g>
                                </g>
                            </g>
                        </g>
                    </g>
                </g>
            </g>
        </g>
    </g>
</svg>