<?xml version="1.0" encoding="UTF-8"?>
<svg width="48px" height="48px" viewBox="0 0 48 48" version="1.1" xmlns="http://www.w3.org/2000/svg" xmlns:xlink="http://www.w3.org/1999/xlink">
    <title>Section / Categories  / Charity</title>
    <defs>
        <path d="M13.9315226,15.1278218 C16.115844,12.8083581 17.3631014,9.67861637 17.3631014,6.48749872 C17.3631014,2.91242114 14.4548031,0.00412276215 10.8797255,0.00412276215 C7.30464791,0.00412276215 4.39634953,2.91242114 4.39634953,6.48749872 C4.39634953,9.67847229 5.64360699,12.8083581 7.82792839,15.1278218 L0.707164535,22.2485857 L3.76313981,25.304561 L10.8797255,18.1879753 L17.9963112,25.304561 L21.0522864,22.2485857 L13.9315226,15.1278218 Z M10.8797255,12.0634902 C9.50164791,10.5502702 8.71860017,8.53898295 8.71860017,6.4876428 C8.71860017,5.29527792 9.68736061,4.32651748 10.8797255,4.32651748 C12.0720904,4.32651748 13.0408508,5.29527792 13.0408508,6.4876428 C13.0408508,8.53898295 12.2579471,10.5502702 10.8797255,12.0634902 L10.8797255,12.0634902 Z" id="path-1"></path>
    </defs>
    <g id="Page-1" stroke="none" stroke-width="1" fill="none" fill-rule="evenodd">
        <g id="GoMoney-Categories" transform="translate(-164.000000, -578.000000)">
            <g id="Section-/-Categories--/-Charity" transform="translate(164.000000, 578.000000)">
                <g>
                    <path d="M15.3833112,-6.21504185e-16 L32.6166888,6.21504185e-16 C37.9658012,-3.61111829e-16 39.9055187,0.556953667 41.8610742,1.60279622 C43.8166298,2.64863878 45.3513612,4.18337022 46.3972038,6.13892578 C47.4430463,8.09448133 48,10.0341988 48,15.3833112 L48,32.6166888 C48,37.9658012 47.4430463,39.9055187 46.3972038,41.8610742 C45.3513612,43.8166298 43.8166298,45.3513612 41.8610742,46.3972038 C39.9055187,47.4430463 37.9658012,48 32.6166888,48 L15.3833112,48 C10.0341988,48 8.09448133,47.4430463 6.13892578,46.3972038 C4.18337022,45.3513612 2.64863878,43.8166298 1.60279622,41.8610742 C0.556953667,39.9055187 2.4074122e-16,37.9658012 -4.14336123e-16,32.6166888 L4.14336123e-16,15.3833112 C-2.4074122e-16,10.0341988 0.556953667,8.09448133 1.60279622,6.13892578 C2.64863878,4.18337022 4.18337022,2.64863878 6.13892578,1.60279622 C8.09448133,0.556953667 10.0341988,3.61111829e-16 15.3833112,-6.21504185e-16 Z" id="Rectangle" fill="#FFDEDE"></path>
                    <g id="Icon-/-Fill-/-Charity" transform="translate(11.000000, 11.000000)">
                        <g id="Color" transform="translate(2.000000, 0.000000)">
                            <mask id="mask-2" fill="white">
                                <use xlink:href="#path-1"></use>
                            </mask>
                            <use id="Mask" fill="#15777C" fill-rule="nonzero" xlink:href="#path-1"></use>
                            <g id="Colors-/-Black" mask="url(#mask-2)" fill="#FF0000">
                                <g transform="translate(-2.000000, 0.000000)" id="Color">
                                    <rect x="0" y="0" width="26" height="26"></rect>
                                </g>
                            </g>
                        </g>
                    </g>
                </g>
            </g>
        </g>
    </g>
</svg>