<?xml version="1.0" encoding="UTF-8"?>
<svg width="48px" height="48px" viewBox="0 0 48 48" version="1.1" xmlns="http://www.w3.org/2000/svg" xmlns:xlink="http://www.w3.org/1999/xlink">
    <title>Section / Categories / Eating out 1</title>
    <g id="Page-1" stroke="none" stroke-width="1" fill="none" fill-rule="evenodd">
        <g id="GoMoney-Categories" transform="translate(-296.000000, -296.000000)">
            <g id="Section-/-Categories-/-Food" transform="translate(296.000000, 296.000000)">
                <g id="Section-/-Categories-/-Eating-out-1">
                    <g id="Section-/-Categories-/-Eating-out">
                        <g id="Group-4-Copy-2">
                            <g id="Group-2">
                                <g id="Group-5">
                                    <path d="M15.3833112,-6.21504185e-16 L32.6166888,6.21504185e-16 C37.9658012,-3.61111829e-16 39.9055187,0.556953667 41.8610742,1.60279622 C43.8166298,2.64863878 45.3513612,4.18337022 46.3972038,6.13892578 C47.4430463,8.09448133 48,10.0341988 48,15.3833112 L48,32.6166888 C48,37.9658012 47.4430463,39.9055187 46.3972038,41.8610742 C45.3513612,43.8166298 43.8166298,45.3513612 41.8610742,46.3972038 C39.9055187,47.4430463 37.9658012,48 32.6166888,48 L15.3833112,48 C10.0341988,48 8.09448133,47.4430463 6.13892578,46.3972038 C4.18337022,45.3513612 2.64863878,43.8166298 1.60279622,41.8610742 C0.556953667,39.9055187 2.4074122e-16,37.9658012 -4.14336123e-16,32.6166888 L4.14336123e-16,15.3833112 C-2.4074122e-16,10.0341988 0.556953667,8.09448133 1.60279622,6.13892578 C2.64863878,4.18337022 4.18337022,2.64863878 6.13892578,1.60279622 C8.09448133,0.556953667 10.0341988,3.61111829e-16 15.3833112,-6.21504185e-16 Z" id="Rectangle" fill="#EEFFDB"></path>
                                    <g id="Icon-/-Fill-/-Food" transform="translate(11.000000, 11.000000)">
                                        <g transform="translate(-3.923077, -3.923077)">
                                            <rect id="Rectangle" x="0" y="0" width="33.8" height="33.8"></rect>
                                            <path d="M9.7508125,15.08975 C9.37945636,15.2636062 9.142274,15.6366743 9.1424125,16.0467125 L9.1424125,30.46875 C9.1424125,31.3437762 8.43306365,32.053125 7.5580375,32.053125 C6.68301135,32.053125 5.9736625,31.3437762 5.9736625,30.46875 L5.9736625,16.0509375 C5.973801,15.6408993 5.73661864,15.2678312 5.3652625,15.093975 C3.54547723,14.2403933 2.38481684,12.4100261 2.38874004,10.4 L2.38874004,7.65375 C2.38874004,5.80467726 3.3752185,4.09606356 4.97656247,3.17152718 C6.57790643,2.2469908 8.55084357,2.2469908 10.1521875,3.17152718 C11.7535315,4.09606356 12.74,5.80467726 12.74,7.65375 L12.74,10.4 C12.7373816,12.410655 11.5723624,14.238459 9.7508125,15.08975 Z" id="Path" fill="#15777C"></path>
                                            <path d="M31.2667875,9.871875 C31.318966,12.9212926 29.4933951,15.6898514 26.6699875,16.843125 C26.2589353,16.9977077 25.9864161,17.3905054 25.9855375,17.8296625 L25.9855375,30.46875 C25.9855375,31.3437762 25.2761887,32.053125 24.4011625,32.053125 C23.5261363,32.053125 22.8167875,31.3437762 22.8167875,30.46875 L22.8167875,17.8381125 C22.8162411,17.3994894 22.5446707,17.0068474 22.13445,16.851575 C19.3102125,15.6989723 17.4837036,12.9302633 17.5355375,9.880325 L17.5355375,4.0625 C17.5355375,3.18747385 18.2448863,2.478125 19.1199125,2.478125 C19.9949387,2.478125 20.7042875,3.18747385 20.7042875,4.0625 L20.7042875,9.871875 C20.6919075,11.0259888 21.1220419,12.141012 21.9063,12.9878125 C22.0553969,13.1443027 22.2848025,13.1941446 22.4853925,13.1136294 C22.6859826,13.0331141 22.8172636,12.8384954 22.8167875,12.62235 L22.8167875,4.0625 C22.8167875,3.18747385 23.5261363,2.478125 24.4011625,2.478125 C25.2761887,2.478125 25.9855375,3.18747385 25.9855375,4.0625 L25.9855375,12.62235 C25.9850614,12.8384954 26.1163424,13.0331141 26.3169325,13.1136294 C26.5175225,13.1941446 26.7469281,13.1443027 26.896025,12.9878125 C27.6812144,12.1415931 28.1114978,11.0261837 28.0980375,9.871875 L28.0980375,4.0625 C28.0980375,3.18747385 28.8073863,2.478125 29.6824125,2.478125 C30.5574387,2.478125 31.2667875,3.18747385 31.2667875,4.0625 L31.2667875,9.871875 Z" id="Path" fill="#15777C"></path>
                                        </g>
                                    </g>
                                </g>
                            </g>
                        </g>
                    </g>
                </g>
            </g>
        </g>
    </g>
</svg>