<svg xmlns="http://www.w3.org/2000/svg" xmlns:xlink="http://www.w3.org/1999/xlink" width="66" height="65" viewBox="0 0 66 65">
    <defs>
        <path id="a" d="M33.585 2.203A2.203 2.203 0 0 0 31.382 0H5.684A2.203 2.203 0 0 0 3.48 2.203v1.101c0 .406.329.734.734.734H5.62a1.101 1.101 0 0 1 0 2.203H1.214a1.101 1.101 0 1 0 0 2.203h1.533c.405 0 .734.329.734.734v5.874c0 .406.329.734.734.734H5.62a1.101 1.101 0 0 1 0 2.203H1.214a1.101 1.101 0 0 0 0 2.203h1.533c.405 0 .734.329.734.734V26.8c0 .406.329.734.734.734H5.62a1.101 1.101 0 0 1 0 2.203H1.214a1.101 1.101 0 0 0 0 2.203h1.533c.405 0 .734.329.734.734v.367c0 1.217.986 2.203 2.203 2.203h25.698a2.203 2.203 0 0 0 2.203-2.203V2.203zM15.941 15.008a.734.734 0 0 0-.423.665V25.7a1.101 1.101 0 0 1-2.203 0V15.676a.734.734 0 0 0-.423-.665 3.596 3.596 0 0 1-2.069-3.263v-1.91a3.598 3.598 0 0 1 7.196 0v1.91a3.604 3.604 0 0 1-2.078 3.26zm13.601-3.627a5.14 5.14 0 0 1-3.195 4.846.734.734 0 0 0-.476.686v8.786a1.101 1.101 0 0 1-2.203 0v-8.78a.734.734 0 0 0-.474-.686 5.14 5.14 0 0 1-3.197-4.846V7.342a1.101 1.101 0 0 1 2.203 0v4.039c-.009.802.29 1.577.835 2.166a.367.367 0 0 0 .633-.254v-5.95a1.101 1.101 0 0 1 2.203 0v5.95a.367.367 0 0 0 .633.254 3.13 3.13 0 0 0 .836-2.166V7.342a1.101 1.101 0 0 1 2.202 0v4.039z"/>
    </defs>
    <g fill="none" fill-rule="evenodd">
        <path fill="#E3FEFF" d="M21.514 0h23.104c7.171 0 9.772.747 12.393 2.149a14.618 14.618 0 0 1 6.082 6.081c1.402 2.622 2.148 5.222 2.148 12.393v23.104c0 7.171-.746 9.772-2.148 12.394a14.618 14.618 0 0 1-6.082 6.08c-2.621 1.403-5.222 2.15-12.393 2.15H21.514c-7.171 0-9.771-.747-12.393-2.15a14.618 14.618 0 0 1-6.081-6.08C1.637 53.499.89 50.898.89 43.727V20.623c0-7.17.747-9.771 2.15-12.393A14.618 14.618 0 0 1 9.12 2.15C11.744.747 14.344 0 21.515 0z"/>
        <g transform="translate(16.669 15)">
            <mask id="b" fill="#fff">
                <use xlink:href="#a"/>
            </mask>
            <use fill="#FFF" fill-rule="nonzero" xlink:href="#a"/>
            <g fill="#15777C" mask="url(#b)">
                <path d="M-1 0h35.142v35.142H-1z"/>
            </g>
        </g>
    </g>
</svg>
