<svg xmlns="http://www.w3.org/2000/svg" xmlns:xlink="http://www.w3.org/1999/xlink" width="66" height="65" viewBox="0 0 66 65">
    <defs>
        <path id="a" d="M2.885 27.306a6.09 6.09 0 0 1 5.218-.573.677.677 0 0 1 .368.96 8.732 8.732 0 0 0-1.024 4.117.677.677 0 0 1-.677.676H.727a.677.677 0 0 1-.676-.76 6.09 6.09 0 0 1 2.834-4.42zm21.511-.573a6.09 6.09 0 0 1 8.048 4.993.677.677 0 0 1-.677.76h-6.048a.677.677 0 0 1-.677-.676 8.783 8.783 0 0 0-1.02-4.119.677.677 0 0 1 .374-.958zM16.244 15.56a5.076 5.076 0 0 1 2.621 9.424.338.338 0 0 0 .042.601 6.695 6.695 0 0 1 4.108 6.197.677.677 0 0 1-.677.7h-12.18a.677.677 0 0 1-.677-.701 6.7 6.7 0 0 1 4.1-6.196.338.338 0 0 0 .043-.6 5.076 5.076 0 0 1 2.62-9.425zm10.15 2.717a3.383 3.383 0 1 1 0 6.767 3.383 3.383 0 0 1 0-6.767zm-20.3 0a3.383 3.383 0 1 1 0 6.767 3.383 3.383 0 0 1 0-6.767zm7.548 1.182l-.077.017a.333.333 0 0 0-.21.213 3.041 3.041 0 0 0 2.889 4.001 3.048 3.048 0 0 0 3.04-2.81.338.338 0 0 0-.405-.356 6.78 6.78 0 0 1-1.282.121 6.705 6.705 0 0 1-3.734-1.131.341.341 0 0 0-.298-.038zm12.12-11.94c.495.55.456 1.395-.087 1.897a10.662 10.662 0 0 0-2.76 3.95A1.353 1.353 0 1 1 20.4 12.36a13.369 13.369 0 0 1 3.466-4.958 1.353 1.353 0 0 1 1.896.116zm-17.14-.116a13.369 13.369 0 0 1 3.466 4.958 1.353 1.353 0 0 1-2.514 1.005 10.662 10.662 0 0 0-2.76-3.95 1.353 1.353 0 0 1 1.808-2.013zm7.622.724c.747 0 1.353.606 1.353 1.353v2.707a1.353 1.353 0 0 1-2.707 0V9.479c0-.747.606-1.353 1.354-1.353zM4.064 0c.339 0 .625.25.67.586l.06.445a2.722 2.722 0 0 0 2.301 2.301l.447.064c.336.054.584.34.584.676a.677.677 0 0 1-.582.67l-.442.061a2.718 2.718 0 0 0-2.301 2.3l-.064.45a.677.677 0 0 1-1.34 0l-.064-.448a2.718 2.718 0 0 0-2.301-2.3l-.45-.065a.677.677 0 0 1 0-1.34l.447-.064a2.722 2.722 0 0 0 2.3-2.3l.065-.45A.677.677 0 0 1 4.064 0zm12.18 0c.34 0 .626.25.671.586l.051.359c.13.892.831 1.593 1.723 1.723l.359.051c.333.054.581.34.581.677a.677.677 0 0 1-.581.67l-.359.051c-.892.13-1.593.83-1.723 1.723l-.051.359a.677.677 0 0 1-1.341 0l-.052-.358a2.038 2.038 0 0 0-1.721-1.724l-.36-.051a.677.677 0 0 1 0-1.34l.359-.052A2.038 2.038 0 0 0 15.522.953l.052-.367a.677.677 0 0 1 .67-.586z"/>
    </defs>
    <g fill="none" fill-rule="evenodd">
        <path fill="#E6E3FF" d="M21.514 0h23.104c7.171 0 9.772.747 12.393 2.149a14.618 14.618 0 0 1 6.082 6.081c1.402 2.622 2.148 5.222 2.148 12.393v23.104c0 7.171-.746 9.772-2.148 12.394a14.618 14.618 0 0 1-6.082 6.08c-2.621 1.403-5.222 2.15-12.393 2.15H21.514c-7.171 0-9.771-.747-12.393-2.15a14.618 14.618 0 0 1-6.081-6.08C1.637 53.499.89 50.898.89 43.727V20.623c0-7.17.747-9.771 2.15-12.393A14.618 14.618 0 0 1 9.12 2.15C11.744.747 14.344 0 21.515 0z"/>
        <g transform="translate(17.246 16.356)">
            <mask id="b" fill="#fff">
                <use xlink:href="#a"/>
            </mask>
            <use fill="#FFF" fill-rule="nonzero" xlink:href="#a"/>
            <g fill="#5D2ADE" mask="url(#b)">
                <path d="M-1-1h34.142v34.142H-1z"/>
            </g>
        </g>
    </g>
</svg>
