<svg xmlns="http://www.w3.org/2000/svg" xmlns:xlink="http://www.w3.org/1999/xlink" width="66" height="65" viewBox="0 0 66 65">
    <defs>
        <path id="a" d="M16.24 27.796a6.08 6.08 0 0 1 5.662 3.87.635.635 0 0 1-.59.867h-10.08a.677.677 0 0 1-.627-.93 6.078 6.078 0 0 1 5.635-3.807zM27.3 22.217a.677.677 0 0 1 .851-.282 7.116 7.116 0 0 1 4.33 6.538.677.677 0 0 1-.676.68h-8.76c-.387 0-.756-.165-1.013-.454a7.682 7.682 0 0 0-2.021-1.624.341.341 0 0 1-.082-.53 5.052 5.052 0 0 0 1.392-3.486c0-.27.141-.522.373-.663.288-.175.587-.33.897-.461a.677.677 0 0 1 .852.282l1.635 2.843a.34.34 0 0 0 .587 0zM7.779 10.201a5.955 5.955 0 0 1 3.496 10.775.338.338 0 0 0-.135.3.314.314 0 0 0 .052.16.677.677 0 0 1 .103.523 5.068 5.068 0 0 0 1.267 4.583.338.338 0 0 1-.085.53 7.714 7.714 0 0 0-2.03 1.624 1.354 1.354 0 0 1-1.011.453H.676A.677.677 0 0 1 0 28.473a7.787 7.787 0 0 1 4.239-6.921.338.338 0 0 0 .043-.576 5.955 5.955 0 0 1 3.496-10.775zm8.47 9.475a3.383 3.383 0 1 1 0 6.767 3.383 3.383 0 0 1 0-6.767zm9.127-9.497a5.752 5.752 0 0 1 5.751 5.752c-.14 1.147.203 2.3.948 3.183a1.353 1.353 0 1 1-1.903 1.925 5.33 5.33 0 0 1-.566-.66.338.338 0 0 0-.495-.055 5.738 5.738 0 0 1-7.479 0 .346.346 0 0 0-.261-.08.336.336 0 0 0-.234.136l-.047.052a.36.36 0 0 1-.547-.071 5.121 5.121 0 0 0-1.128-1.263.677.677 0 0 1-.197-.798c.293-.755.43-1.56.406-2.369a5.752 5.752 0 0 1 5.752-5.752zM5.205 14.957a.338.338 0 0 0-.503.178 3.248 3.248 0 0 0 3.08 4.27 3.248 3.248 0 0 0 3.232-3.012.338.338 0 0 0-.395-.354 7.637 7.637 0 0 1-5.414-1.082zm20.168-.504a.34.34 0 0 0-.27.134 3.344 3.344 0 0 1-1.24 1.002c-.39.183-.805.31-1.23.379a.34.34 0 0 0-.288.376 3.044 3.044 0 0 0 6.04 0 .338.338 0 0 0-.272-.376 4.614 4.614 0 0 1-1.23-.38 3.344 3.344 0 0 1-1.24-1 .34.34 0 0 0-.27-.135zM10.58 1.12a3.742 3.742 0 0 1 5.292.023.525.525 0 0 0 .742 0A3.753 3.753 0 0 1 19.862.102a3.729 3.729 0 0 1 2.045 6.32l-4.694 4.872a1.353 1.353 0 0 1-1.948 0l-4.709-4.881a3.742 3.742 0 0 1 .024-5.292z"/>
    </defs>
    <g fill="none" fill-rule="evenodd">
        <path fill="#E6E3FF" d="M21.514 0h23.104c7.171 0 9.772.747 12.393 2.149a14.618 14.618 0 0 1 6.082 6.081c1.402 2.622 2.148 5.222 2.148 12.393v23.104c0 7.171-.746 9.772-2.148 12.394a14.618 14.618 0 0 1-6.082 6.08c-2.621 1.403-5.222 2.15-12.393 2.15H21.514c-7.171 0-9.771-.747-12.393-2.15a14.618 14.618 0 0 1-6.081-6.08C1.637 53.499.89 50.898.89 43.727V20.623c0-7.17.747-9.771 2.15-12.393A14.618 14.618 0 0 1 9.12 2.15C11.744.747 14.344 0 21.515 0z"/>
        <g transform="translate(17.246 16.356)">
            <mask id="b" fill="#fff">
                <use xlink:href="#a"/>
            </mask>
            <use fill="#FFF" fill-rule="nonzero" xlink:href="#a"/>
            <g fill="#5D2ADE" mask="url(#b)">
                <path d="M0-1h34.142v34.142H0z"/>
            </g>
        </g>
    </g>
</svg>
