<svg xmlns="http://www.w3.org/2000/svg" xmlns:xlink="http://www.w3.org/1999/xlink" width="66" height="65" viewBox="0 0 66 65">
    <defs>
        <path id="a" d="M33.737 3.12a1.469 1.469 0 0 1 0 2.938h-2.951a.369.369 0 0 0-.359.283l-5.175 21.995a.369.369 0 0 0 .147.382 3.304 3.304 0 1 1-5.24 2.673.367.367 0 0 0-.368-.368H10.98a.367.367 0 0 0-.26.11.363.363 0 0 0-.115.255 3.304 3.304 0 1 1-3.377-3.303h14.774c.17 0 .318-.116.357-.282l.174-.734a.369.369 0 0 0-.359-.452H5.516a1.468 1.468 0 0 1-1.392-1.003L.206 13.866a1.468 1.468 0 0 1 1.393-1.934h24.205c.17 0 .318-.117.357-.282l1.607-6.83a2.194 2.194 0 0 1 2.144-1.7zm-16.78 1.11a2.39 2.39 0 0 1 3.357-.064c.052.05.101.105.147.162l2.873 3.785a1.468 1.468 0 0 1-1.174 2.35H14.39a1.451 1.451 0 0 1-1.36-.89 1.468 1.468 0 0 1 .304-1.6zM4.867.797a2.61 2.61 0 0 1 1.82-.147 2.32 2.32 0 0 1 1.487 1.26l2.896 6.486a1.468 1.468 0 0 1-1.341 2.068H3.395c-.578 0-1.102-.34-1.34-.866L.242 5.533a2.433 2.433 0 0 1 1.277-3.17z"/>
    </defs>
    <g fill="none" fill-rule="evenodd">
        <path fill="#E3FEFF" d="M21.514 0h23.104c7.171 0 9.772.747 12.393 2.149a14.618 14.618 0 0 1 6.082 6.081c1.402 2.622 2.148 5.222 2.148 12.393v23.104c0 7.171-.746 9.772-2.148 12.394a14.618 14.618 0 0 1-6.082 6.08c-2.621 1.403-5.222 2.15-12.393 2.15H21.514c-7.171 0-9.771-.747-12.393-2.15a14.618 14.618 0 0 1-6.081-6.08C1.637 53.499.89 50.898.89 43.727V20.623c0-7.17.747-9.771 2.15-12.393A14.618 14.618 0 0 1 9.12 2.15C11.744.747 14.344 0 21.515 0z"/>
        <g transform="translate(15.89 15)">
            <mask id="b" fill="#fff">
                <use xlink:href="#a"/>
            </mask>
            <use fill="#FFF" fill-rule="nonzero" xlink:href="#a"/>
            <g fill="#15777C" mask="url(#b)">
                <path d="M0 0h35.142v35.142H0z"/>
            </g>
        </g>
    </g>
</svg>
