<?xml version="1.0" encoding="UTF-8"?>
<svg width="48px" height="48px" viewBox="0 0 48 48" version="1.1" xmlns="http://www.w3.org/2000/svg" xmlns:xlink="http://www.w3.org/1999/xlink">
    <title>Section / Categories  / Groceries 1</title>
    <g id="Page-1" stroke="none" stroke-width="1" fill="none" fill-rule="evenodd">
        <g id="GoMoney-Categories" transform="translate(-296.000000, -390.000000)">
            <g id="Section-/-Categories--/-Groceries" transform="translate(296.000000, 390.000000)">
                <g id="Section-/-Categories--/-Groceries-1-Copy">
                    <g>
                        <path d="M15.3833112,-6.21504185e-16 L32.6166888,6.21504185e-16 C37.9658012,-3.61111829e-16 39.9055187,0.556953667 41.8610742,1.60279622 C43.8166298,2.64863878 45.3513612,4.18337022 46.3972038,6.13892578 C47.4430463,8.09448133 48,10.0341988 48,15.3833112 L48,32.6166888 C48,37.9658012 47.4430463,39.9055187 46.3972038,41.8610742 C45.3513612,43.8166298 43.8166298,45.3513612 41.8610742,46.3972038 C39.9055187,47.4430463 37.9658012,48 32.6166888,48 L15.3833112,48 C10.0341988,48 8.09448133,47.4430463 6.13892578,46.3972038 C4.18337022,45.3513612 2.64863878,43.8166298 1.60279622,41.8610742 C0.556953667,39.9055187 2.4074122e-16,37.9658012 -4.14336123e-16,32.6166888 L4.14336123e-16,15.3833112 C-2.4074122e-16,10.0341988 0.556953667,8.09448133 1.60279622,6.13892578 C2.64863878,4.18337022 4.18337022,2.64863878 6.13892578,1.60279622 C8.09448133,0.556953667 10.0341988,3.61111829e-16 15.3833112,-6.21504185e-16 Z" id="Rectangle" fill="#FFF4DB"></path>
                        <g id="Icon-/-Fill-/-Groceries" transform="translate(11.000000, 11.000000)">
                            <g>
                                <rect id="Rectangle" x="0" y="0" width="26" height="26"></rect>
                                <path d="M24.8885,2.30207589 C25.4868085,2.30207589 25.9718333,2.78710819 25.9718333,3.38541667 C25.9718333,3.98372515 25.4868085,4.46875 24.8885,4.46875 L24.8885,4.46875 L22.711,4.46875 C22.585113,4.46885377 22.4757561,4.55535331 22.4466667,4.67783333 L22.4466667,4.67783333 L18.629,20.904 C18.6049165,21.0111511 18.6476546,21.1222703 18.7373333,21.1856667 C19.6705107,21.8609123 20.0036309,23.0972181 19.5360397,24.149898 C19.0684485,25.202578 17.9277993,25.7842484 16.8011595,25.5445413 C15.6745197,25.3048343 14.8694644,24.3091903 14.8709167,23.1573333 C14.8709167,23.0077562 14.7496605,22.8865 14.6000833,22.8865 L14.6000833,22.8865 L8.10008333,22.8865 C8.02804895,22.8866586 7.95904549,22.9155076 7.90833333,22.9666667 C7.85607088,23.0156565 7.82563328,23.0835557 7.82383333,23.1551667 C7.82409783,24.494377 6.74388346,25.5829817 5.4047112,25.5930788 C4.06553894,25.6031759 2.96903253,24.5309834 2.94910329,23.1919213 C2.92917406,21.8528593 3.99328705,20.7485103 5.33216667,20.71875 L5.33216667,20.71875 L16.2315833,20.71875 C16.3570217,20.7190582 16.4661188,20.6328579 16.4948333,20.51075 L16.4948333,20.51075 L16.6226667,19.9690833 C16.6414906,19.8883583 16.6224655,19.8034555 16.5709933,19.7384825 C16.5195212,19.6735096 16.4412239,19.6355627 16.3583333,19.6354167 L16.3583333,19.6354167 L4.069,19.6354167 C3.60319466,19.6352184 3.18966026,19.3372817 3.042,18.8955 L3.042,18.8955 L0.151666667,10.2288333 C0.0411934553,9.89831108 0.0964708149,9.5348246 0.300205971,9.25208571 C0.503941127,8.96934683 0.831254304,8.80188312 1.17975,8.80207589 L1.17975,8.80207589 L19.0363333,8.80207589 C19.1617717,8.80239149 19.2708688,8.71619127 19.2995833,8.59408333 L19.2995833,8.59408333 L20.48475,3.5555 C20.6550626,2.81990801 21.3113691,2.29980758 22.0664167,2.30207589 L22.0664167,2.30207589 Z M12.50925,3.12108333 C13.1825732,2.43007442 14.2863349,2.40882966 14.98575,3.07341667 C15.0244558,3.11070029 15.0606463,3.15050987 15.0940833,3.19258333 L15.0940833,3.19258333 L17.2141667,5.98541667 C17.4603685,6.31368578 17.4999708,6.75288203 17.3164628,7.11989806 C17.1329548,7.48691409 16.7578364,7.71875 16.3475,7.71875 L16.3475,7.71875 L10.6166667,7.71875 C10.1786267,7.72585529 9.78343305,7.46486877 9.61342321,7.06233851 C9.44341337,6.65980825 9.53187481,6.19454859 9.83775,5.8825 L9.83775,5.8825 Z M3.59016667,0.587166667 C4.01026472,0.390377212 4.48729583,0.351906962 4.9335,0.478833333 C5.41763011,0.612787265 5.81848219,0.95264011 6.02983333,1.40833333 L6.02983333,1.40833333 L8.16616667,6.19341667 C8.31594817,6.52858285 8.2857983,6.91679989 8.08606525,7.22482194 C7.88633221,7.53284398 7.54419486,7.71875 7.17708333,7.71875 L7.17708333,7.71875 L2.50466667,7.71875 C2.0782402,7.71875 1.69150152,7.46852075 1.51666667,7.07958333 L1.51666667,7.07958333 L0.177666667,4.082 C-0.20086143,3.17580532 0.219092447,2.13364392 1.12016667,1.74308333 L1.12016667,1.74308333 Z" id="Mask" fill="#FFC033" transform="translate(13.005180, 13.001763) scale(-1, 1) translate(-13.005180, -13.001763) "></path>
                            </g>
                        </g>
                    </g>
                </g>
            </g>
        </g>
    </g>
</svg>