<svg xmlns="http://www.w3.org/2000/svg" width="340" height="296" viewBox="0 0 340 296">
    <g fill="none" fill-rule="evenodd">
        <path fill="#ED5262" d="M339.102 231.606C334.38 224.313 337.5 97.47 296.55 51.55c-23.023-26-163.813 40.744-169.295 31.772-8.686-14.218 29.289-32.84 67.422-47.563 28.702-11.081 57.834-21.258 65.36-18.423 3.286-1.495-38.958-54.066-47.651-53.95-7.09.095-35.521 12.773-64.034 28.846-35.565 20.043-67.347 45.785-72.095 41.784-7.718-6.497 27.66-36.497 30.416-40.757 2.754-4.26 14.916-24.1 25.584-31.849C142.925-46.337 174.56-70.162 176.938-75c0 0-8.675.264-11.55.08-14.158-.91-56.112-7.675-56.112-7.675S84.73-61.62 63.7-36.818l-.63.744C42.276-11.554 23.23 11.019 19.941 7.932 13.455 1.84 46.516-42.004 60.04-50.643c13.618-8.692 17.716-19.703 18.065-19.834-.736-.277-38.013-11.997-70.593 9.146-32.841 21.314-28.946 36.031-33.81 41.18-4.867 5.146-16.699 23.286-13.695 30.301 2.944 6.875 19.31 29.919 19.964 30.838l.02.028zm-.18.12L-20.033 41.44s-29.8-.979-37.487.364c-7.694 1.34-16.98 20.809-18.803 27.568-1.816 6.761-16.647 11.537-17.32 49.891-.672 38.346 40.828 67.435 40.828 67.435s-3.337-14.279-3.184-30.303c.152-15.719 20.19-66.44 28.963-64.434 4.494 1.027-4.96 29.348-15.033 59.946-10.071 30.589-14.936 61.986-14.936 61.986s28.529 30.616 36.975 41.683c1.714 2.25 6.176 9.481 6.176 9.481 2.896-4.564 6.393-43.284 7.327-56.19.928-12.902 11.508-33.57 13.701-38.12 2.19-4.555 9-49.68 18.79-46.888 6.026 1.713.954 41.594 2.852 81.49 1.528 31.979 5.936 62.062 9.686 67.909 4.601 7.162 72.894 13.238 72.412 9.745-6.521-4.608-13.471-33.913-19.408-63.356-7.89-39.112-12.325-80.197 4.667-80.793 10.721-.372 29.136 150.725 64.063 155.481 61.843 8.615 169.83-62.524 178.688-62.607z"/>
        <path fill="#F47079" d="M337.042 224.42c-4.722-7.292-1.603-134.135-42.553-180.055-23.024-26-163.813 40.744-169.295 31.772-8.686-14.218 29.288-32.84 67.421-47.563 28.703-11.082 57.835-21.258 65.362-18.423 3.285-1.495-38.96-54.066-47.652-53.95-7.09.094-35.521 12.773-64.034 28.846C110.726 5.09 78.943 30.832 74.195 26.831c-7.718-6.497 27.661-36.497 30.416-40.757 2.755-4.26 14.917-24.101 25.585-31.849 10.668-7.747 42.303-31.572 44.682-36.412 0 0-8.675.265-11.55.082-14.159-.911-56.112-7.676-56.112-7.676S82.669-68.805 61.639-44.003l-.63.743C40.215-18.74 21.17 3.834 17.88.747c-6.486-6.092 26.575-49.937 40.1-58.575 13.617-8.693 21.65-17.43 22-17.561-.735-.277-41.949-14.27-74.528 6.873-32.841 21.314-28.947 36.03-33.81 41.18C-33.225-22.19-45.057-4.05-42.054 2.965c2.944 6.875 19.311 29.919 19.965 30.838l.02.028zm-.18.122L-22.094 34.254s-29.8-.98-37.487.363c-7.694 1.342-16.98 20.81-18.803 27.569-1.816 6.761-16.648 11.537-17.32 49.891-.672 38.346 40.828 67.435 40.828 67.435s-3.337-14.279-3.184-30.303c.152-15.719 20.189-66.44 28.962-64.434 4.494 1.027-4.96 29.348-15.033 59.946-10.07 30.589-14.935 61.986-14.935 61.986s28.528 30.615 36.975 41.682c1.713 2.25 6.175 9.482 6.175 9.482 2.897-4.564 6.394-43.284 7.327-56.19.929-12.902 11.509-33.57 13.702-38.12 2.19-4.555 9-49.68 18.789-46.888 6.027 1.713.955 41.594 2.853 81.49 1.528 31.978 5.935 62.062 9.685 67.909 4.602 7.161 72.895 13.238 72.413 9.745-6.521-4.608-13.472-33.913-19.409-63.356-7.89-39.112-12.324-80.198 4.667-80.793 10.722-.372 29.137 150.725 64.064 155.481 61.843 8.615 169.829-62.524 178.687-62.607z"/>
        <path stroke="#ED5262" stroke-width="2.65" d="M-22.087 33.828C76.526 83.732 132.4 113.88 145.54 124.274c19.708 15.59 72.798 40.186 81.998 45.383 9.201 5.198 95.968 37.385 108.966 55.352"/>
    </g>
</svg>
