<svg xmlns="http://www.w3.org/2000/svg" width="181" height="65" viewBox="0 0 181 65">
    <g fill="none" fill-rule="evenodd">
        <path fill="#ED5262" d="M101.822 64.303C97.208 56.94-19.068 6.162-43.38-50.358-57.214-82.213 62.777-181.604 56.962-190.364c-9.215-13.881-42.14 12.666-71.6 41.003-22.174 21.33-43.708 43.433-44.32 51.452-2.743 2.345-32.536-58.158-28.757-65.988 3.082-6.385 26.588-26.795 53.205-45.843 33.196-23.762 69.958-41.688 68.338-47.682-2.626-9.74-44.767 9.645-49.792 10.341-5.025.697-28.147 3.334-39.677 9.728-11.53 6.395-46.493 24.997-51.884 25.108 0 0 3.906-7.75 4.955-10.434 5.158-13.217 16.757-54.099 16.757-54.099s29.385-13.381 60.75-21.96l.941-.257c31.01-8.482 59.517-16.202 58.11-20.489-2.78-8.453-56.489 2.98-70.034 11.587-13.633 8.67-25.344 7.73-25.61 7.991.06-.783 5.192-39.522 38.123-60.114 33.196-20.756 44.888-11.007 51.61-13.238 6.721-2.237 28.161-5.294 33.25.393 4.987 5.574 18.954 30.146 19.511 31.127l.017.03zm.186-.112L81.25-341.553s11.706-27.421 16.172-33.82c4.467-6.407 26.035-6.595 32.932-5.392 6.895 1.212 17.492-10.211 52.537 5.388 35.037 15.597 43.862 65.502 43.862 65.502s-11.531-9.059-26.119-15.692c-14.31-6.505-68.747-9.781-70.637-.982-.968 4.507 28.695 7.907 60.683 11.71 31.979 3.8 62.49 12.66 62.49 12.66s15.69 38.794 22.151 51.126c1.315 2.504 5.983 9.604 5.983 9.604-5.36.697-41.93-12.498-54.021-17.106-12.086-4.611-35.288-3.757-40.34-3.693-5.053.06-48.83-12.838-50.435-2.786-.994 6.186 37.293 18.443 72.649 37.024 28.337 14.9 53.739 31.608 57.453 37.478 4.546 7.197-18.809 71.66-21.77 69.746-1.42-7.857-25.043-26.541-49.218-44.365-32.113-23.68-67.475-45.063-75.196-29.915-4.868 9.56 124.29 90.106 113.84 123.77-18.329 59.69-128.44 127.494-132.258 135.487z"/>
        <path fill="#F47079" d="M96.18 59.399C91.568 52.037-24.71 1.258-49.021-55.262-62.856-87.117 57.136-186.508 51.321-195.268c-9.215-13.881-42.14 12.666-71.6 41.003-22.174 21.33-43.709 43.433-44.32 51.452-2.744 2.345-32.536-58.158-28.757-65.988 3.082-6.385 26.588-26.795 53.205-45.843 33.195-23.762 69.957-41.688 68.338-47.682-2.626-9.74-44.767 9.645-49.793 10.341-5.024.697-28.146 3.334-39.677 9.728-11.53 6.395-46.492 24.997-51.884 25.108 0 0 3.907-7.75 4.955-10.434 5.159-13.217 16.758-54.099 16.758-54.099s29.385-13.381 60.75-21.96l.94-.257c31.01-8.481 59.518-16.202 58.11-20.489-2.78-8.453-56.488 2.98-70.033 11.588-13.633 8.668-24.948 12.256-25.214 12.518.06-.784 4.796-44.05 37.726-64.641 33.197-20.757 44.889-11.007 51.611-13.24 6.721-2.235 28.161-5.292 33.25.395 4.987 5.573 18.954 30.145 19.51 31.126l.018.03zm.186-.112L75.608-346.457s11.707-27.42 16.173-33.82c4.467-6.407 26.035-6.595 32.931-5.391 6.896 1.211 17.493-10.212 52.538 5.387 35.037 15.597 43.861 65.502 43.861 65.502s-11.53-9.058-26.118-15.692c-14.31-6.505-68.747-9.781-70.637-.982-.968 4.507 28.695 7.907 60.682 11.71 31.98 3.8 62.49 12.66 62.49 12.66s15.691 38.794 22.152 51.126c1.315 2.504 5.983 9.605 5.983 9.605-5.36.696-41.93-12.499-54.021-17.107-12.087-4.611-35.289-3.757-40.34-3.693-5.054.061-48.83-12.838-50.435-2.786-.995 6.186 37.293 18.443 72.648 37.024 28.338 14.9 53.74 31.608 57.454 37.478 4.546 7.197-18.809 71.66-21.77 69.747-1.42-7.858-25.043-26.542-49.218-44.366-32.113-23.68-67.475-45.063-75.196-29.915-4.868 9.56 124.29 90.106 113.84 123.77C210.295-16.51 100.184 51.295 96.365 59.288z"/>
        <path stroke="#ED5262" stroke-width="2.65" d="M75.22-346.63c3.552 110.463 7.262 173.845 11.129 190.145 5.801 24.45 5.655 82.96 6.478 93.496.822 10.535-6.677 102.776 4.114 122.15"/>
    </g>
</svg>
