<svg xmlns="http://www.w3.org/2000/svg" width="299" height="651" viewBox="0 0 299 651">
    <g fill="none" fill-rule="evenodd">
        <path fill="#ED5262" d="M-416.74 778.538c16.332-12.725 318.081-31.704 418.596-138.455C58.8 580.026-128.831 259.727-108.67 244.848c31.95-23.574 84.028 62.69 126.886 150.141 32.257 65.824 62.454 132.856 57.286 151.31 4.23 7.487 120.265-103.718 118.186-124.328-1.694-16.809-37.685-81.657-81.753-145.991C56.984 195.73-10.713 125.645-2.2 113.542c13.822-19.67 92.372 58.065 103.056 63.72 10.682 5.652 60.304 30.393 80.908 54.103 20.602 23.712 83.718 93.845 95.7 98.485 0 0-2.427-20.536-2.588-27.398-.773-33.797 6.586-134.786 6.586-134.786s-54.884-53.9-118.12-98.661C100.1 24.233 41.329-17.015 48.043-25.551c13.115-16.664 124.05 52.69 147.36 82.996C218.86 87.962 245.847 95.4 246.23 96.201c.505-1.804 20.597-92.725-36.349-165.66-57.404-73.518-91.532-61.213-104.765-71.686-13.225-10.482-58.737-34.793-74.768-26.205-16.03 8.59-69.126 53.856-69.126 53.856zm-.325-.401L-39.787-113.47s-3.855-70.935-8.636-88.903c-4.78-17.984-52.918-35.975-69.341-38.898-16.427-2.904-30.84-37.115-122.025-30.735-91.165 6.382-151.612 110.937-151.612 110.937s33.203-10.89 71.274-13.86c37.345-2.908 161.901 34.102 158.96 55.344-1.507 10.88-70.696-5.67-145.417-23.214-74.702-17.542-150.24-22.56-150.24-22.56s-66.762 74.085-91.28 96.435c-4.986 4.535-21.228 16.631-21.228 16.631 11.434 5.925 104.074 6.173 134.903 5.704 30.822-.48 82.075 20.334 93.332 24.593 11.267 4.253 119.799 11.031 115.199 34.847-2.817 14.662-98.538 10.917-192.849 23.72C-494.342 46.85-564.84 63.57-577.943 73.687c-16.046 12.412-16.31 175.779-8.119 173.908 9.587-16.438 77.71-39.03 146.371-59.247 91.21-26.863 187.82-45.933 192.756-5.726 3.106 25.37-351.752 100.509-355.8 184.402-7.626 148.583 183.637 390.104 185.67 411.114z"/>
        <path fill="#F47079" d="M-400.11 772.154c16.332-12.725 318.081-31.704 418.596-138.455 56.945-60.057-130.687-380.356-110.525-395.234 31.95-23.574 84.028 62.69 126.886 150.14 32.257 65.825 62.454 132.857 57.286 151.311 4.23 7.487 120.265-103.72 118.186-124.329-1.694-16.809-37.685-81.656-81.753-145.99C73.614 189.346 5.917 119.26 14.43 107.158c13.822-19.67 92.372 58.065 103.056 63.719 10.682 5.652 60.304 30.393 80.908 54.104 20.602 23.711 83.718 93.844 95.7 98.485 0 0-2.427-20.537-2.588-27.399-.773-33.797 6.586-134.785 6.586-134.785s-54.884-53.901-118.12-98.662C116.73 17.85 57.959-23.399 64.673-31.935c13.115-16.664 124.05 52.691 147.36 82.997 23.458 30.516 45.866 47.767 46.25 48.57.504-1.804 25.175-102.54-31.77-175.474-57.405-73.519-91.533-61.213-104.766-71.687-13.225-10.482-58.737-34.793-74.768-26.204-16.03 8.589-69.126 53.855-69.126 53.855zm-.325-.4l377.278-891.607s-3.855-70.935-8.636-88.903c-4.78-17.984-52.918-35.975-69.341-38.897-16.427-2.904-30.84-37.116-122.025-30.736-91.165 6.382-151.612 110.937-151.612 110.937s33.204-10.89 71.274-13.86c37.345-2.908 161.901 34.102 158.96 55.344-1.507 10.881-70.696-5.67-145.417-23.214-74.702-17.542-150.24-22.559-150.24-22.559s-66.762 74.084-91.28 96.435c-4.986 4.535-21.228 16.63-21.228 16.63 11.434 5.926 104.074 6.173 134.903 5.704 30.822-.48 82.075 20.335 93.332 24.594 11.267 4.252 119.799 11.03 115.199 34.846-2.817 14.662-98.538 10.917-192.849 23.721-75.595 10.277-146.093 26.997-159.196 37.114-16.046 12.412-16.309 175.778-8.119 173.907 9.587-16.438 77.71-39.03 146.371-59.246 91.21-26.863 187.82-45.934 192.756-5.727 3.106 25.371-351.752 100.509-355.8 184.402-7.626 148.584 183.637 390.105 185.67 411.114z"/>
        <path stroke="#ED5262" stroke-width="2.65" d="M-22.147-119.891c-98.01 244.426-157.99 383.311-179.939 416.656-32.923 50.017-80.297 181.135-90.727 204.053-10.43 22.918-68.839 235.546-108.796 270.132"/>
    </g>
</svg>
