<svg xmlns="http://www.w3.org/2000/svg" width="315" height="699" viewBox="0 0 315 699">
    <g fill="none" fill-rule="evenodd">
        <path fill="#ED5262" d="M670.074 829.561c3.622-20.385 215.166-236.398 218.433-382.987 2.133-82.735-351.627-195.213-346.6-219.76 7.97-38.898 104.393-9.639 194.759 26.672 68.016 27.333 135.31 56.942 143.819 74.114 8.152 2.733 19.972-157.551 4.637-171.477-12.507-11.357-82.645-35.466-158.442-53.788-94.534-22.867-191.74-29.653-193.512-44.343-2.89-23.867 107.5-18.658 119.223-21.606 11.72-2.947 65.151-17.764 96.328-13.93 31.177 3.835 125.01 13.721 137.019 9.153 0 0-15.545-13.638-20.257-18.63-23.19-24.599-85.294-104.572-85.294-104.572s-76.854-3.332-153.798 5.717c-76.957 9.046-148.233 17.72-148.956 6.883-1.403-21.16 127.445-43.848 165.046-36.925 37.852 6.982 62.884-5.55 63.705-5.21-.831-1.678-46.738-82.69-137.86-98.786-91.853-16.224-108.981 15.757-125.823 16.827-16.842 1.06-66.932 13.448-73.098 30.557-6.166 17.11-15.334 86.276-15.334 86.276zm-.51-.08L353.337-85.56s-50.33-50.136-65.906-60.29c-15.585-10.166-63.398 8.675-77.558 17.492-14.15 8.833-47.754-6.946-111.248 58.81-63.479 65.743-38.439 183.89-38.439 183.89s17.389-30.31 43.693-57.992c25.807-27.15 143.135-82.99 155.162-65.236 6.162 9.094-56.33 43.091-123.598 80.052C68.19 108.116 8.696 154.932 8.696 154.932s-.04 99.727-3.307 132.744C4.72 294.38.743 314.238.743 314.238c12.461-3.247 81.472-65.052 104.069-86.028 22.584-20.98 74.6-39.808 85.815-44.176 11.219-4.378 96.409-71.963 108.926-51.187 7.718 12.781-65.922 74.048-127.442 146.67-49.301 58.22-90.504 117.818-93.471 134.103-3.62 19.961 105.498 141.542 110.332 134.671-3.874-18.63 31.634-81.003 69.132-141.97 49.807-80.994 108.84-159.81 139.413-133.234 19.285 16.776-194.148 310.06-141.021 375.113 93.754 115.523 397.499 167.028 413.069 181.28z"/>
        <path fill="#F47079" d="M678.16 813.69c3.623-20.385 215.167-236.399 218.434-382.988 2.133-82.735-351.627-195.213-346.6-219.76 7.97-38.898 104.393-9.638 194.759 26.672 68.016 27.333 135.31 56.942 143.819 74.114 8.152 2.733 19.972-157.551 4.637-171.476-12.507-11.358-82.645-35.466-158.442-53.79-94.534-22.866-191.74-29.652-193.512-44.342-2.89-23.866 107.5-18.658 119.223-21.606 11.72-2.946 65.151-17.764 96.328-13.93 31.177 3.835 125.01 13.721 137.019 9.153 0 0-15.545-13.638-20.257-18.63-23.19-24.598-85.294-104.572-85.294-104.572s-76.854-3.331-153.798 5.718C557.52-92.702 486.243-84.03 485.52-94.865c-1.403-21.16 127.445-43.848 165.046-36.924 37.852 6.981 66.048 4.807 66.87 5.147-.832-1.678-49.903-93.047-141.024-109.144-91.854-16.224-108.982 15.757-125.824 16.828-16.842 1.06-66.932 13.447-73.098 30.556-6.166 17.11-15.334 86.277-15.334 86.277zm-.508-.081l-316.23-915.04s-50.33-50.136-65.905-60.29c-15.585-10.166-63.398 8.675-77.558 17.492-14.15 8.834-47.754-6.946-111.248 58.81C43.232-19.675 68.272 98.47 68.272 98.47s17.389-30.31 43.693-57.992C137.772 13.33 255.1-42.51 267.127-24.756c6.162 9.094-56.33 43.09-123.598 80.05-67.252 36.95-126.746 83.767-126.746 83.767s-.04 99.727-3.307 132.743c-.67 6.706-4.646 26.563-4.646 26.563 12.461-3.248 81.472-65.052 104.069-86.029 22.584-20.98 74.6-39.808 85.815-44.175 11.219-4.379 96.409-71.964 108.926-51.187 7.718 12.78-65.922 74.048-127.442 146.669-49.301 58.22-90.504 117.818-93.471 134.103-3.62 19.962 105.498 141.542 110.332 134.672-3.874-18.631 31.634-81.004 69.132-141.97 49.807-80.994 108.84-159.811 139.413-133.235 19.285 16.776-194.148 310.06-141.021 375.114 93.754 115.522 397.499 167.027 413.069 181.28z"/>
        <path stroke="#ED5262" stroke-width="2.65" d="M362.147-102.136c90.717 247.226 139.076 390.572 145.077 430.038 9.002 59.2 61.53 188.34 69.115 212.35 7.584 24.01 106.454 221.107 99.902 273.546"/>
    </g>
</svg>
