<?xml version="1.0" encoding="UTF-8"?>
<svg width="48px" height="48px" viewBox="0 0 48 48" version="1.1" xmlns="http://www.w3.org/2000/svg" xmlns:xlink="http://www.w3.org/1999/xlink">
    <title>Section / Categories  / Household</title>
    <g id="Page-1" stroke="none" stroke-width="1" fill="none" fill-rule="evenodd">
        <g id="GoMoney-Categories" transform="translate(-76.000000, -578.000000)">
            <g id="Section-/-Categories--/-Household" transform="translate(76.000000, 578.000000)">
                <g id="Section-/-Categories--/-Personal">
                    <path d="M15.3833112,-6.21504185e-16 L32.6166888,6.21504185e-16 C37.9658012,-3.61111829e-16 39.9055187,0.556953667 41.8610742,1.60279622 C43.8166298,2.64863878 45.3513612,4.18337022 46.3972038,6.13892578 C47.4430463,8.09448133 48,10.0341988 48,15.3833112 L48,32.6166888 C48,37.9658012 47.4430463,39.9055187 46.3972038,41.8610742 C45.3513612,43.8166298 43.8166298,45.3513612 41.8610742,46.3972038 C39.9055187,47.4430463 37.9658012,48 32.6166888,48 L15.3833112,48 C10.0341988,48 8.09448133,47.4430463 6.13892578,46.3972038 C4.18337022,45.3513612 2.64863878,43.8166298 1.60279622,41.8610742 C0.556953667,39.9055187 2.4074122e-16,37.9658012 -4.14336123e-16,32.6166888 L4.14336123e-16,15.3833112 C-2.4074122e-16,10.0341988 0.556953667,8.09448133 1.60279622,6.13892578 C2.64863878,4.18337022 4.18337022,2.64863878 6.13892578,1.60279622 C8.09448133,0.556953667 10.0341988,3.61111829e-16 15.3833112,-6.21504185e-16 Z" id="Rectangle" fill="#E6F7FF"></path>
                    <g id="Icon-/-Fill-/-Home" transform="translate(11.000000, 11.000000)">
                        <g>
                            <rect id="Rectangle" x="0" y="0" width="26" height="26"></rect>
                            <path d="M23,5 C23.5522847,5 24,5.44771525 24,6 L24,25 C24,25.5522847 23.5522847,26 23,26 L16,26 L16,16 C16,15.4477153 15.5522847,15 15,15 L15,15 L11,15 C10.4477153,15 10,15.4477153 10,16 L10,16 L10,26 L3,26 C2.44771525,26 2,25.5522847 2,25 L2,6 C2,5.44771525 2.44771525,5 3,5 L23,5 Z M25,0 C25.5522847,-1.01453063e-16 26,0.44771525 26,1 L26,2 C26,2.55228475 25.5522847,3 25,3 L1,3 C0.44771525,3 6.76353751e-17,2.55228475 0,2 L0,1 C-6.76353751e-17,0.44771525 0.44771525,1.01453063e-16 1,0 L25,0 Z" id="Combined-Shape" fill="#1B5ECE"></path>
                        </g>
                    </g>
                </g>
            </g>
        </g>
    </g>
</svg>