<svg xmlns="http://www.w3.org/2000/svg" xmlns:xlink="http://www.w3.org/1999/xlink" width="66" height="65" viewBox="0 0 66 65">
    <defs>
        <path id="a" d="M9.101 13.555c.963 0 1.743.78 1.743 1.743v11.425c0 .963-.78 1.743-1.743 1.743H1.743C.78 28.466 0 27.686 0 26.723V15.298c0-.962.78-1.743 1.743-1.743H9.1zm12.2-8.133c.963 0 1.743.78 1.743 1.743v19.558c0 .963-.78 1.743-1.743 1.743h-7.358c-.963 0-1.743-.78-1.743-1.743V7.165c0-.963.78-1.743 1.743-1.743H21.3zM33.501 0c.963 0 1.743.78 1.743 1.743v24.98c0 .963-.78 1.743-1.743 1.743h-7.359c-.962 0-1.742-.78-1.742-1.743V1.743C24.4.78 25.18 0 26.142 0h7.36z"/>
    </defs>
    <g fill="none" fill-rule="evenodd">
        <path fill="#E3FEFF" d="M21.514 0h23.104c7.171 0 9.772.747 12.393 2.149a14.618 14.618 0 0 1 6.082 6.081c1.402 2.622 2.148 5.222 2.148 12.393v23.104c0 7.171-.746 9.772-2.148 12.394a14.618 14.618 0 0 1-6.082 6.08c-2.621 1.403-5.222 2.15-12.393 2.15H21.514c-7.171 0-9.771-.747-12.393-2.15a14.618 14.618 0 0 1-6.081-6.08C1.637 53.499.89 50.898.89 43.727V20.623c0-7.17.747-9.771 2.15-12.393A14.618 14.618 0 0 1 9.12 2.15C11.744.747 14.344 0 21.515 0z"/>
        <g transform="translate(15.89 21.778)">
            <mask id="b" fill="#fff">
                <use xlink:href="#a"/>
            </mask>
            <use fill="#D8D8D8" xlink:href="#a"/>
            <g fill="#15777C" mask="url(#b)">
                <path d="M0-7h35.142v35.142H0z"/>
            </g>
        </g>
    </g>
</svg>
