<?xml version="1.0" encoding="UTF-8"?>
<svg width="48px" height="48px" viewBox="0 0 48 48" version="1.1" xmlns="http://www.w3.org/2000/svg" xmlns:xlink="http://www.w3.org/1999/xlink">
    <title>Section / Categories  / Investment 1</title>
    <defs>
        <path d="M6.7,10 C7.41797017,10 8,10.5820298 8,11.3 L8,19.7 C8,20.4179702 7.41797017,21 6.7,21 L1.3,21 C0.582029825,21 -1.34118617e-16,20.4179702 0,19.7 L0,11.3 C-8.79259876e-17,10.5820298 0.582029825,10 1.3,10 L6.7,10 Z M15.7,4 C16.4179702,4 17,4.58202983 17,5.3 L17,19.7 C17,20.4179702 16.4179702,21 15.7,21 L10.3,21 C9.58202983,21 9,20.4179702 9,19.7 L9,5.3 C9,4.58202983 9.58202983,4 10.3,4 L15.7,4 Z M24.7,0 C25.4179702,-7.69574597e-16 26,0.582029825 26,1.3 L26,19.7 C26,20.4179702 25.4179702,21 24.7,21 L19.3,21 C18.5820298,21 18,20.4179702 18,19.7 L18,1.3 C18,0.582029825 18.5820298,7.98022796e-16 19.3,0 L24.7,0 Z" id="path-1"></path>
    </defs>
    <g id="Page-1" stroke="none" stroke-width="1" fill="none" fill-rule="evenodd">
        <g id="GoMoney-Categories" transform="translate(-296.000000, -483.000000)">
            <g id="Section-/-Categories--/-Investment-" transform="translate(296.000000, 483.000000)">
                <g id="Section-/-Categories--/-Investment-1">
                    <g id="Section-/-Categories--/-Investment">
                        <g id="Group-4-Copy-2">
                            <g id="Group-2">
                                <g id="Group-5">
                                    <path d="M15.3833112,-6.21504185e-16 L32.6166888,6.21504185e-16 C37.9658012,-3.61111829e-16 39.9055187,0.556953667 41.8610742,1.60279622 C43.8166298,2.64863878 45.3513612,4.18337022 46.3972038,6.13892578 C47.4430463,8.09448133 48,10.0341988 48,15.3833112 L48,32.6166888 C48,37.9658012 47.4430463,39.9055187 46.3972038,41.8610742 C45.3513612,43.8166298 43.8166298,45.3513612 41.8610742,46.3972038 C39.9055187,47.4430463 37.9658012,48 32.6166888,48 L15.3833112,48 C10.0341988,48 8.09448133,47.4430463 6.13892578,46.3972038 C4.18337022,45.3513612 2.64863878,43.8166298 1.60279622,41.8610742 C0.556953667,39.9055187 2.4074122e-16,37.9658012 -4.14336123e-16,32.6166888 L4.14336123e-16,15.3833112 C-2.4074122e-16,10.0341988 0.556953667,8.09448133 1.60279622,6.13892578 C2.64863878,4.18337022 4.18337022,2.64863878 6.13892578,1.60279622 C8.09448133,0.556953667 10.0341988,3.61111829e-16 15.3833112,-6.21504185e-16 Z" id="Rectangle" fill="#EEFFDB"></path>
                                    <g id="Icon-/-Fill-/-Investment" transform="translate(11.000000, 11.000000)">
                                        <g id="Color" transform="translate(0.000000, 5.000000)">
                                            <mask id="mask-2" fill="white">
                                                <use xlink:href="#path-1"></use>
                                            </mask>
                                            <use id="Mask" fill="#D8D8D8" xlink:href="#path-1"></use>
                                            <g id="Colors-/-Black" mask="url(#mask-2)" fill="#90E831">
                                                <g transform="translate(0.000000, -5.000000)" id="Color">
                                                    <rect x="0" y="0" width="26" height="26"></rect>
                                                </g>
                                            </g>
                                        </g>
                                    </g>
                                </g>
                            </g>
                        </g>
                    </g>
                </g>
            </g>
        </g>
    </g>
</svg>