<svg xmlns="http://www.w3.org/2000/svg" width="78" height="62" viewBox="0 0 78 62">
    <path fill="#0D2879" fill-rule="evenodd" d="M8.25 20.444c0 6.115 3.966 10.528 9.532 10.528a9.454 9.454 0 0 0 3.146-.535 5.498 5.498 0 0 1-3.107-4.948c0-3.02 2.44-5.484 5.452-5.484 1.601 0 3.05.688 4.041 1.796.057-.44.076-.898.076-1.357 0-6.056-4.117-10.451-9.608-10.451-5.566 0-9.531 4.395-9.531 10.451zm-8.235 0c0-10.107 7.55-18.094 17.767-18.094 10.295 0 17.844 7.987 17.844 18.094 0 10.184-7.55 18.152-17.844 18.152-10.37 0-17.767-7.968-17.767-18.152zm69.75 0c0-6.056-4.118-10.451-9.608-10.451-5.567 0-9.551 4.395-9.551 10.451 0 6.115 3.984 10.528 9.55 10.528a9.454 9.454 0 0 0 3.146-.535 5.486 5.486 0 0 1-3.107-4.948c0-3.02 2.44-5.484 5.452-5.484 1.601 0 3.05.688 4.041 1.796.058-.44.077-.898.077-1.357zm8.235 0c0 10.184-7.55 18.152-17.843 18.152-10.37 0-17.768-7.968-17.768-18.152 0-10.107 7.53-18.094 17.768-18.094C70.45 2.35 78 10.337 78 20.444zm-46.92-18.2a4.516 4.516 0 0 0 5.493 3.265A4.527 4.527 0 0 0 39.83 0l-8.75 2.243zm-3.686 41.624h8.236C35.63 54.032 28.08 62 17.786 62 7.416 62 0 54.032 0 43.868h8.235c0 6.095 3.985 10.49 9.551 10.49 5.49 0 9.608-4.395 9.608-10.49zM78 47.687v6.382c0 1.86-1.155 3.097-3.157 3.097-1.672 0-2.573-.93-2.892-2.113l1.485-.306c.134.65.572 1.049 1.407 1.049.969 0 1.565-.598 1.565-1.714v-.705l-.013-.04c-.452.544-.995.917-2.004.917-1.445 0-2.413-.85-2.413-2.791v-3.776h1.592v3.51c0 1.196.53 1.569 1.326 1.569.862 0 1.512-.572 1.512-1.69v-3.389H78zm-10.468 1.13c-1.075 0-1.672.731-1.816 1.488h3.526c-.04-.598-.57-1.489-1.71-1.489zM65.7 51.528a1.831 1.831 0 0 0 1.832 1.663c.927 0 1.459-.56 1.617-1.011l1.34.413c-.385 1.062-1.34 1.914-2.957 1.914-1.897 0-3.357-1.463-3.357-3.51 0-2.008 1.46-3.496 3.344-3.496 1.923 0 3.128 1.394 3.128 3.416v.611H65.7zm-8.756-3.842h1.314l.227.797c.41-.545 1.035-.982 2.015-.982 1.498 0 2.375.863 2.375 2.803v4.016h-1.592v-3.802c0-1.172-.545-1.542-1.287-1.542-.81 0-1.46.571-1.46 1.702v3.642h-1.592v-6.634zm-2.893 3.311c0-1.171-.795-2.021-1.857-2.021-1.073 0-1.844.85-1.844 2.021 0 1.183.77 2.033 1.844 2.033 1.062 0 1.857-.85 1.857-2.033zm-5.292 0c0-1.954 1.46-3.496 3.435-3.496 1.99 0 3.448 1.542 3.448 3.496 0 1.966-1.458 3.51-3.448 3.51-2.002 0-3.435-1.544-3.435-3.51zm-10.92-3.311h1.314l.211.783c.399-.53 1.1-.968 2.044-.968.995 0 1.525.477 1.79.995.412-.531 1.102-.995 2.122-.995 1.233 0 2.135.73 2.135 2.432v4.387h-1.592v-3.948c0-1.01-.437-1.396-1.127-1.396-.73 0-1.287.53-1.287 1.582v3.762h-1.591v-3.948c0-1.01-.477-1.396-1.14-1.396-.717 0-1.287.518-1.287 1.582v3.762h-1.592v-6.634z"/>
</svg>
