<svg xmlns="http://www.w3.org/2000/svg" xmlns:xlink="http://www.w3.org/1999/xlink" width="66" height="65" viewBox="0 0 66 65">
    <defs>
        <path id="a" d="M31.855 5.422c.373 0 .678.304.678.678v16.266a.678.678 0 0 1-.678.678H6.1a.679.679 0 0 1 0-1.355h25.077V6.099c0-.373.304-.677.678-.677zm-2.711-2.71c.373 0 .678.303.678.677v16.266a.678.678 0 0 1-.678.678H3.389a.679.679 0 0 1 0-1.355h25.077V3.388c0-.373.304-.677.678-.677zM26.433 0c.374 0 .678.304.678.678v16.266a.678.678 0 0 1-.678.678H.678A.678.678 0 0 1 0 16.944V.678C0 .304.304 0 .678 0zM6.1 13.555H3.389a.678.678 0 0 0 0 1.356h2.71a.679.679 0 0 0 0-1.356zm7.455-9.488A4.749 4.749 0 0 0 8.811 8.81a4.75 4.75 0 0 0 4.744 4.744A4.75 4.75 0 0 0 18.3 8.811a4.749 4.749 0 0 0-4.745-4.744zM23.722 2.71H21.01a.678.678 0 0 0 0 1.356h2.71a.679.679 0 0 0 0-1.356z"/>
    </defs>
    <g fill="none" fill-rule="evenodd">
        <path fill="#E3EDFF" d="M21.514 0h23.104c7.171 0 9.772.747 12.393 2.149a14.618 14.618 0 0 1 6.082 6.081c1.402 2.622 2.148 5.222 2.148 12.393v23.104c0 7.171-.746 9.772-2.148 12.394a14.618 14.618 0 0 1-6.082 6.08c-2.621 1.403-5.222 2.15-12.393 2.15H21.514c-7.171 0-9.771-.747-12.393-2.15a14.618 14.618 0 0 1-6.081-6.08C1.637 53.499.89 50.898.89 43.727V20.623c0-7.17.747-9.771 2.15-12.393A14.618 14.618 0 0 1 9.12 2.15C11.744.747 14.344 0 21.515 0z"/>
        <g transform="translate(17.246 20.422)">
            <mask id="b" fill="#fff">
                <use xlink:href="#a"/>
            </mask>
            <use fill="#000" fill-rule="nonzero" xlink:href="#a"/>
            <g fill="#1B5ECE" mask="url(#b)">
                <path d="M-1-5h35.142v35.142H-1z"/>
            </g>
        </g>
    </g>
</svg>
