<svg xmlns="http://www.w3.org/2000/svg" xmlns:xlink="http://www.w3.org/1999/xlink" width="66" height="65" viewBox="0 0 66 65">
    <defs>
        <path id="a" d="M28.291 25.58a.705.705 0 0 1 .925-.177l4.844 2.924a.763.763 0 0 1 .216 1.174l-2.385 2.387-2.387 2.385a.763.763 0 0 1-1.175-.213l-2.923-4.844a.705.705 0 0 1 .179-.926 13.315 13.315 0 0 0 2.706-2.71zM23.804 7.15l.17.008c.447.039.869.235 1.188.557l.423.423.23.238A12.344 12.344 0 0 1 16.8 29.158a12.195 12.195 0 0 1-8.657-3.575l-.431-.43a1.929 1.929 0 0 1 0-2.723L22.444 7.715c.36-.361.85-.564 1.36-.564zM4.413 10.986a2.115 2.115 0 0 1 2.636-.67c1.736.563 3.109 3.827 3.622 5.215.118.31.004.66-.274.842-1.235.815-4.271 2.63-6.007 2.065a2.115 2.115 0 0 1 .041-4.163.351.351 0 0 0 .188-.576 2.115 2.115 0 0 1-.206-2.713zm11.914-8.313A2.115 2.115 0 0 1 18.43 4.39c.568 1.736-1.25 4.772-2.066 6.007a.705.705 0 0 1-.833.274c-1.388-.513-4.652-1.886-5.224-3.615a2.115 2.115 0 0 1 3.383-2.43.351.351 0 0 0 .577-.188 2.115 2.115 0 0 1 2.061-1.766zM4.77.786a2.115 2.115 0 0 1 2.663.6c1.294 1.292 1.04 4.823.87 6.295a.705.705 0 0 1-.622.623c-1.466.17-4.998.42-6.29-.871a2.115 2.115 0 0 1 1.92-3.7.354.354 0 0 0 .422-.422A2.115 2.115 0 0 1 4.77.786z"/>
    </defs>
    <g fill="none" fill-rule="evenodd">
        <path fill="#E3EDFF" d="M21.514 0h23.104c7.171 0 9.772.747 12.393 2.149a14.618 14.618 0 0 1 6.082 6.081c1.402 2.622 2.148 5.222 2.148 12.393v23.104c0 7.171-.746 9.772-2.148 12.394a14.618 14.618 0 0 1-6.082 6.08c-2.621 1.403-5.222 2.15-12.393 2.15H21.514c-7.171 0-9.771-.747-12.393-2.15a14.618 14.618 0 0 1-6.081-6.08C1.637 53.499.89 50.898.89 43.727V20.623c0-7.17.747-9.771 2.15-12.393A14.618 14.618 0 0 1 9.12 2.15C11.744.747 14.344 0 21.515 0z"/>
        <g transform="translate(16.669 15.778)">
            <mask id="b" fill="#fff">
                <use xlink:href="#a"/>
            </mask>
            <use fill="#FFF" fill-rule="nonzero" xlink:href="#a"/>
            <g fill="#1B5ECE" mask="url(#b)">
                <path d="M-1-1h35.142v35.142H-1z"/>
            </g>
        </g>
    </g>
</svg>
