<?xml version="1.0" encoding="UTF-8"?>
<svg width="48px" height="48px" viewBox="0 0 48 48" version="1.1" xmlns="http://www.w3.org/2000/svg" xmlns:xlink="http://www.w3.org/1999/xlink">
    <title>Section / Categories  / Personal 1</title>
    <defs>
        <filter id="filter-1">
            <feColorMatrix in="SourceGraphic" type="matrix" values="0 0 0 0 1.000000 0 0 0 0 1.000000 0 0 0 0 1.000000 0 0 0 1.000000 0"></feColorMatrix>
        </filter>
    </defs>
    <g id="Page-1" stroke="none" stroke-width="1" fill="none" fill-rule="evenodd">
        <g id="GoMoney-Categories" transform="translate(-32.000000, -390.000000)">
            <g id="Section-/-Categories--/-Self-care" transform="translate(32.000000, 390.000000)">
                <g id="Section-/-Categories--/-Personal-1">
                    <g id="Section-/-Categories--/-Personal">
                        <g id="Group-4-Copy-2">
                            <g id="Group-2">
                                <g id="Group-5">
                                    <path d="M15.3833112,-6.21504185e-16 L32.6166888,6.21504185e-16 C37.9658012,-3.61111829e-16 39.9055187,0.556953667 41.8610742,1.60279622 C43.8166298,2.64863878 45.3513612,4.18337022 46.3972038,6.13892578 C47.4430463,8.09448133 48,10.0341988 48,15.3833112 L48,32.6166888 C48,37.9658012 47.4430463,39.9055187 46.3972038,41.8610742 C45.3513612,43.8166298 43.8166298,45.3513612 41.8610742,46.3972038 C39.9055187,47.4430463 37.9658012,48 32.6166888,48 L15.3833112,48 C10.0341988,48 8.09448133,47.4430463 6.13892578,46.3972038 C4.18337022,45.3513612 2.64863878,43.8166298 1.60279622,41.8610742 C0.556953667,39.9055187 2.4074122e-16,37.9658012 -4.14336123e-16,32.6166888 L4.14336123e-16,15.3833112 C-2.4074122e-16,10.0341988 0.556953667,8.09448133 1.60279622,6.13892578 C2.64863878,4.18337022 4.18337022,2.64863878 6.13892578,1.60279622 C8.09448133,0.556953667 10.0341988,3.61111829e-16 15.3833112,-6.21504185e-16 Z" id="Rectangle" fill="#E6F7FF"></path>
                                    <g id="Icon-/-Fill-/-Personal-Care" transform="translate(11.000000, 11.000000)">
                                        <g transform="translate(-3.923077, -3.923077)" id="Color">
                                            <g>
                                                <rect id="Rectangle" x="0" y="0" width="33.8" height="33.8"></rect>
                                                <circle id="Oval-Copy" fill="#5DCDFC" cx="16.9" cy="7.8" r="5.2"></circle>
                                                <rect id="Rectangle-Copy" fill="#5DCDFC" x="7.8" y="14.3" width="18.2" height="18.2" rx="2.42912825"></rect>
                                                <g filter="url(#filter-1)" id="heart">
                                                    <g transform="translate(11.700000, 19.500000)">
                                                        <path d="M9.57496337,0.890553288 C9.03660278,0.316282196 8.29789429,0 7.49475708,0 C6.8944275,0 6.3446411,0.186663465 5.86063233,0.554761941 C5.61640625,0.740566999 5.39511109,0.967887529 5.2,1.23321185 C5.00496827,0.967965561 4.78359375,0.740566999 4.53928833,0.554761941 C4.0553589,0.186663465 3.5055725,0 2.90524293,0 C2.10210571,0 1.36331788,0.316282196 0.82495727,0.890553288 C0.293023677,1.45811323 0,2.23348454 0,3.07393836 C0,3.93897369 0.327777105,4.73081073 1.03149414,5.56595804 C1.66102296,6.31300208 2.565802,7.07136144 3.61356202,7.94950691 C3.97133179,8.24940143 4.37686767,8.58932871 4.79795532,8.95141838 C4.909198,9.04724728 5.05194093,9.1 5.2,9.1 C5.34797973,9.1 5.490802,9.04724728 5.60188598,8.95157446 C6.02297363,8.58940675 6.42874757,8.2493234 6.78667602,7.94927279 C7.83427734,7.07128341 8.7390564,6.31300208 9.3685852,5.56588001 C10.0723023,4.73081073 10.4,3.93897369 10.4,3.07386033 C10.4,2.23348454 10.1069763,1.45811323 9.57496337,0.890553288 Z" id="Path" fill="#FFFFFF"></path>
                                                    </g>
                                                </g>
                                            </g>
                                        </g>
                                    </g>
                                </g>
                            </g>
                        </g>
                    </g>
                </g>
            </g>
        </g>
    </g>
</svg>