<?xml version="1.0" encoding="UTF-8"?>
<svg width="48px" height="48px" viewBox="0 0 48 48" version="1.1" xmlns="http://www.w3.org/2000/svg" xmlns:xlink="http://www.w3.org/1999/xlink">
    <title>Section / Categories  / Shopping 1</title>
    <defs>
        <path d="M10.8333333,0 C14.12403,0 16.7916667,2.6676367 16.7916667,5.95833333 L16.7916667,5.95833333 L16.7916667,6.22916667 C16.7916667,6.37874379 16.9129229,6.5 17.0625,6.5 L17.0625,6.5 L20.0416667,6.5 C20.9391294,6.5 21.6666667,7.22753728 21.6666667,8.125 L21.6666667,8.125 L21.6666667,23.2916667 C21.6666667,24.0099613 21.3813252,24.6988365 20.8734142,25.2067475 C20.3655032,25.7146586 19.676628,26 18.9583333,26 L18.9583333,26 L2.70833333,26 C1.99003867,26 1.30116349,25.7146586 0.793252468,25.2067475 C0.285341443,24.6988365 -2.42978287e-12,24.0099613 -2.42978287e-12,23.2916667 L-2.42978287e-12,23.2916667 L-2.42978287e-12,8.125 C-2.42978287e-12,7.22753728 0.727537282,6.5 1.625,6.5 L1.625,6.5 L4.60416667,6.5 C4.67599613,6.5 4.74488365,6.47146586 4.79567475,6.42067475 C4.84646586,6.36988365 4.875,6.30099613 4.875,6.22916667 L4.875,6.22916667 L4.875,5.95833333 C4.875,2.6676367 7.5426367,0 10.8333333,0 Z M10.8333333,2.16666675 C8.73925369,2.16666675 7.04166667,3.86425369 7.04166667,5.95833333 L7.04166667,5.95833333 L7.04166667,6.22916667 C7.04166667,6.37874379 7.16292288,6.5 7.3125,6.5 L7.3125,6.5 L14.3541667,6.5 C14.5037438,6.5 14.625,6.37874379 14.625,6.22916667 L14.625,6.22916667 L14.625,5.95833333 C14.625,3.86425369 12.927413,2.16666675 10.8333333,2.16666675 Z" id="path-1"></path>
    </defs>
    <g id="Page-1" stroke="none" stroke-width="1" fill="none" fill-rule="evenodd">
        <g id="GoMoney-Categories" transform="translate(-208.000000, -389.000000)">
            <g id="Section-/-Categories--/-Shopping" transform="translate(208.000000, 389.000000)">
                <g id="Section-/-Categories--/-Shopping-1">
                    <g id="Section-/-Categories--/-Shopping">
                        <g id="Group-4-Copy-2">
                            <g id="Group-2">
                                <g id="Group-5">
                                    <path d="M15.3833112,-6.21504185e-16 L32.6166888,6.21504185e-16 C37.9658012,-3.61111829e-16 39.9055187,0.556953667 41.8610742,1.60279622 C43.8166298,2.64863878 45.3513612,4.18337022 46.3972038,6.13892578 C47.4430463,8.09448133 48,10.0341988 48,15.3833112 L48,32.6166888 C48,37.9658012 47.4430463,39.9055187 46.3972038,41.8610742 C45.3513612,43.8166298 43.8166298,45.3513612 41.8610742,46.3972038 C39.9055187,47.4430463 37.9658012,48 32.6166888,48 L15.3833112,48 C10.0341988,48 8.09448133,47.4430463 6.13892578,46.3972038 C4.18337022,45.3513612 2.64863878,43.8166298 1.60279622,41.8610742 C0.556953667,39.9055187 2.4074122e-16,37.9658012 -4.14336123e-16,32.6166888 L4.14336123e-16,15.3833112 C-2.4074122e-16,10.0341988 0.556953667,8.09448133 1.60279622,6.13892578 C2.64863878,4.18337022 4.18337022,2.64863878 6.13892578,1.60279622 C8.09448133,0.556953667 10.0341988,3.61111829e-16 15.3833112,-6.21504185e-16 Z" id="Rectangle" fill="#FFF0E3"></path>
                                    <g id="Icon-/-Fill-/-Shopping" transform="translate(11.000000, 11.000000)">
                                        <g id="Color" transform="translate(2.000000, 0.000000)">
                                            <mask id="mask-2" fill="white">
                                                <use xlink:href="#path-1"></use>
                                            </mask>
                                            <use id="Mask" fill="#FFFFFF" fill-rule="nonzero" xlink:href="#path-1"></use>
                                            <g id="Colors-/-Black" mask="url(#mask-2)" fill="#FD6D48">
                                                <g transform="translate(-2.000000, 0.000000)" id="Color">
                                                    <rect x="0" y="0" width="26" height="26"></rect>
                                                </g>
                                            </g>
                                        </g>
                                    </g>
                                </g>
                            </g>
                        </g>
                    </g>
                </g>
            </g>
        </g>
    </g>
</svg>