<svg xmlns="http://www.w3.org/2000/svg" xmlns:xlink="http://www.w3.org/1999/xlink" width="66" height="65" viewBox="0 0 66 65">
    <defs>
        <path id="a" d="M14.685 0a8.077 8.077 0 0 1 8.077 8.077v.367c0 .203.164.367.367.367h4.038c1.217 0 2.203.986 2.203 2.203v20.559a3.671 3.671 0 0 1-3.671 3.67H3.67A3.671 3.671 0 0 1 0 31.574v-20.56c0-1.216.986-2.202 2.203-2.202H6.24a.367.367 0 0 0 .367-.367v-.367A8.077 8.077 0 0 1 14.685 0zm0 2.937a5.14 5.14 0 0 0-5.14 5.14v.367c0 .203.165.367.367.367h9.546a.367.367 0 0 0 .367-.367v-.367a5.14 5.14 0 0 0-5.14-5.14z"/>
    </defs>
    <g fill="none" fill-rule="evenodd">
        <path fill="#FFF0E3" d="M21.514 0h23.104c7.171 0 9.772.747 12.393 2.149a14.618 14.618 0 0 1 6.082 6.081c1.402 2.622 2.148 5.222 2.148 12.393v23.104c0 7.171-.746 9.772-2.148 12.394a14.618 14.618 0 0 1-6.082 6.08c-2.621 1.403-5.222 2.15-12.393 2.15H21.514c-7.171 0-9.771-.747-12.393-2.15a14.618 14.618 0 0 1-6.081-6.08C1.637 53.499.89 50.898.89 43.727V20.623c0-7.17.747-9.771 2.15-12.393A14.618 14.618 0 0 1 9.12 2.15C11.744.747 14.344 0 21.515 0z"/>
        <g transform="translate(18.602 15)">
            <mask id="b" fill="#fff">
                <use xlink:href="#a"/>
            </mask>
            <use fill="#FFF" fill-rule="nonzero" xlink:href="#a"/>
            <g fill="#F1663D" mask="url(#b)">
                <path d="M-3 0h35.142v35.142H-3z"/>
            </g>
        </g>
    </g>
</svg>
