<svg xmlns="http://www.w3.org/2000/svg" xmlns:xlink="http://www.w3.org/1999/xlink" width="66" height="65" viewBox="0 0 66 65">
    <defs>
        <path id="a" d="M5.424 0c1.122 0 2.033.91 2.033 2.033V15.74c0 .188.152.34.339.34H9.49a1.356 1.356 0 0 1 1.163 2.052l-4.066 6.777a1.356 1.356 0 0 1-2.325 0L.195 18.132a1.356 1.356 0 0 1 1.162-2.057H3.05a.338.338 0 0 0 .34-.339V2.033C3.39.91 4.3 0 5.423 0zm16.265 0c.465 0 .9.229 1.162.612l4.067 6.778a1.356 1.356 0 0 1-1.162 2.053h-1.694a.338.338 0 0 0-.339.34v13.7a2.033 2.033 0 1 1-4.067 0v-13.7a.339.339 0 0 0-.339-.34h-1.694A1.356 1.356 0 0 1 16.46 7.39L20.527.612A1.41 1.41 0 0 1 21.689 0z"/>
    </defs>
    <g fill="none" fill-rule="evenodd">
        <path fill="#FFE3E5" d="M21.514 0h23.104c7.171 0 9.772.747 12.393 2.149a14.618 14.618 0 0 1 6.082 6.081c1.402 2.622 2.148 5.222 2.148 12.393v23.104c0 7.171-.746 9.772-2.148 12.394a14.618 14.618 0 0 1-6.082 6.08c-2.621 1.403-5.222 2.15-12.393 2.15H21.514c-7.171 0-9.771-.747-12.393-2.15a14.618 14.618 0 0 1-6.081-6.08C1.637 53.499.89 50.898.89 43.727V20.623c0-7.17.747-9.771 2.15-12.393A14.618 14.618 0 0 1 9.12 2.15C11.744.747 14.344 0 21.515 0z"/>
        <g transform="translate(19.957 20.422)">
            <mask id="b" fill="#fff">
                <use xlink:href="#a"/>
            </mask>
            <use fill="#F00" fill-rule="nonzero" xlink:href="#a"/>
            <g fill="#D0021B" mask="url(#b)">
                <path d="M-4-5h35.142v35.142H-4z"/>
            </g>
        </g>
    </g>
</svg>
