<?xml version="1.0" encoding="UTF-8"?>
<svg width="48px" height="48px" viewBox="0 0 48 48" version="1.1" xmlns="http://www.w3.org/2000/svg" xmlns:xlink="http://www.w3.org/1999/xlink">
    <title>Section / Categories  / Transfer 1</title>
    <g id="Page-1" stroke="none" stroke-width="1" fill="none" fill-rule="evenodd">
        <g id="GoMoney-Categories" transform="translate(-32.000000, -296.000000)">
            <g id="Section-/-Categories--/-Transfers" transform="translate(32.000000, 296.000000)">
                <g id="Section-/-Categories--/-Transfer-1">
                    <g id="Section-/-Categories--/-Transfer">
                        <g id="Group-4-Copy-2">
                            <g id="Group-2">
                                <g id="Group-5">
                                    <path d="M15.3833112,-6.21504185e-16 L32.6166888,6.21504185e-16 C37.9658012,-3.61111829e-16 39.9055187,0.556953667 41.8610742,1.60279622 C43.8166298,2.64863878 45.3513612,4.18337022 46.3972038,6.13892578 C47.4430463,8.09448133 48,10.0341988 48,15.3833112 L48,32.6166888 C48,37.9658012 47.4430463,39.9055187 46.3972038,41.8610742 C45.3513612,43.8166298 43.8166298,45.3513612 41.8610742,46.3972038 C39.9055187,47.4430463 37.9658012,48 32.6166888,48 L15.3833112,48 C10.0341988,48 8.09448133,47.4430463 6.13892578,46.3972038 C4.18337022,45.3513612 2.64863878,43.8166298 1.60279622,41.8610742 C0.556953667,39.9055187 2.4074122e-16,37.9658012 -4.14336123e-16,32.6166888 L4.14336123e-16,15.3833112 C-2.4074122e-16,10.0341988 0.556953667,8.09448133 1.60279622,6.13892578 C2.64863878,4.18337022 4.18337022,2.64863878 6.13892578,1.60279622 C8.09448133,0.556953667 10.0341988,3.61111829e-16 15.3833112,-6.21504185e-16 Z" id="Rectangle" fill="#E3FEFF"></path>
                                    <g id="Icon-/-Fill-/-Transfer" transform="translate(11.000000, 11.000000)">
                                        <g id="Color" transform="translate(3.000000, 4.000000)">
                                            <path d="M4.00101505,-3.14415161e-13 C3.17258792,-3.14415161e-13 2.50101505,0.671572875 2.50101505,1.5 L2.50101505,11.609 C2.5012822,11.6753857 2.47502878,11.7391295 2.42808665,11.7860716 C2.38114452,11.8330137 2.31740071,11.8592671 2.25101505,11.859 L1.00101505,11.859 C0.640038774,11.8586336 0.306883233,12.0528401 0.12933042,12.3671314 C-0.0482223938,12.6814226 -0.0426099686,13.0670095 0.144015046,13.376 L3.14401505,18.376 C3.32473667,18.6772121 3.65024729,18.861516 4.00151505,18.861516 C4.3527828,18.861516 4.67829342,18.6772121 4.85901505,18.376 L7.85901505,13.376 C8.04416103,13.0670187 8.04882725,12.6823399 7.87123063,12.3689584 C7.69363401,12.055577 7.36122122,11.8619244 7.00101505,11.862 L5.75101505,11.862 C5.61294386,11.862 5.50101505,11.7500712 5.50101505,11.612 L5.50101505,1.5 C5.50101505,0.671572875 4.82944217,-3.14415161e-13 4.00101505,-3.14415161e-13 Z" id="Path" fill="#15777C"></path>
                                            <path d="M16.0008101,18.8235327 C16.8292372,18.8235327 17.5008101,18.1519598 17.5008101,17.3235327 L17.5008101,7.21653271 C17.500543,7.15014705 17.5267964,7.08640324 17.5737385,7.03946111 C17.6206806,6.99251898 17.6844245,6.96626556 17.7508101,6.96653271 L19.0008101,6.96653271 C19.3611533,6.96646419 19.6935929,6.77253254 19.8710115,6.45889285 C20.0484302,6.14525317 20.0433869,5.76041536 19.8578101,5.45153271 L16.8578101,0.451532711 C16.6638543,0.168905122 16.3430888,-3.30402372e-13 16.0003101,-3.30402372e-13 C15.6575315,-3.30402372e-13 15.3367659,0.168905122 15.1428101,0.451532711 L12.1428101,5.45153271 C11.9571411,5.76056868 11.9521912,6.14562156 12.1298548,6.45932822 C12.3075183,6.77303488 12.6402881,6.96682474 13.0008101,6.96653271 L14.2508101,6.96653271 C14.3888813,6.96653271 14.5008101,7.07846152 14.5008101,7.21653271 L14.5008101,17.3235327 C14.5008101,18.1519598 15.172383,18.8235327 16.0008101,18.8235327 L16.0008101,18.8235327 Z" id="Path" fill="#FF0000"></path>
                                        </g>
                                    </g>
                                </g>
                            </g>
                        </g>
                    </g>
                </g>
            </g>
        </g>
    </g>
</svg>