<svg xmlns="http://www.w3.org/2000/svg" xmlns:xlink="http://www.w3.org/1999/xlink" width="66" height="65" viewBox="0 0 66 65">
    <defs>
        <path id="a" d="M29.74 9.545a.369.369 0 0 1-.37-.37V3.671A3.671 3.671 0 0 0 25.699 0H9.545a3.671 3.671 0 0 0-3.671 3.671v5.507a.367.367 0 0 1-.367.367H2.203A2.203 2.203 0 0 0 0 11.748v7.342c0 1.217.986 2.203 2.203 2.203.81 0 1.468-.657 1.468-1.468v-7.343h1.836c.203 0 .367.165.367.367v15.756c0 1.095.805 2.023 1.888 2.18.181.025.315.18.315.363v2.627c0 .811.657 1.469 1.468 1.469h2.937c.811 0 1.469-.658 1.469-1.469v-2.6a.366.366 0 0 1 .367-.367h6.608a.366.366 0 0 1 .367.367v2.6c0 .811.658 1.469 1.469 1.469h2.937c.81 0 1.468-.658 1.468-1.469v-2.627c0-.182.134-.337.314-.364a2.203 2.203 0 0 0 1.889-2.18V12.85c0-.202.164-.367.367-.367h1.836v7.312c0 .81.657 1.468 1.468 1.468a2.203 2.203 0 0 0 2.203-2.202v-7.343a2.203 2.203 0 0 0-2.203-2.203l-3.301.031zm-4.041 1.469c.405 0 .734.328.734.734v8.811a.734.734 0 0 1-.734.734H9.545a.734.734 0 0 1-.734-.734v-8.811c0-.406.329-.734.734-.734H25.7zM13.95 5.874V4.405c0-.405.328-.734.734-.734h5.874c.405 0 .734.329.734.734v1.469a.734.734 0 0 1-.734.734h-5.874a.734.734 0 0 1-.734-.734zm1.101 20.559c0 .608-.493 1.101-1.101 1.101H9.545a1.101 1.101 0 1 1 0-2.202h4.406c.608 0 1.101.493 1.101 1.101zm6.241 1.101a1.101 1.101 0 1 1 0-2.202H25.7a1.101 1.101 0 0 1 0 2.202h-4.406z"/>
    </defs>
    <g fill="none" fill-rule="evenodd">
        <path fill="#E3EDFF" d="M21.514 0h23.104c7.171 0 9.772.747 12.393 2.149a14.618 14.618 0 0 1 6.082 6.081c1.402 2.622 2.148 5.222 2.148 12.393v23.104c0 7.171-.746 9.772-2.148 12.394a14.618 14.618 0 0 1-6.082 6.08c-2.621 1.403-5.222 2.15-12.393 2.15H21.514c-7.171 0-9.771-.747-12.393-2.15a14.618 14.618 0 0 1-6.081-6.08C1.637 53.499.89 50.898.89 43.727V20.623c0-7.17.747-9.771 2.15-12.393A14.618 14.618 0 0 1 9.12 2.15C11.744.747 14.344 0 21.515 0z"/>
        <g transform="translate(15.89 15)">
            <mask id="b" fill="#fff">
                <use xlink:href="#a"/>
            </mask>
            <use fill="#FFF" fill-rule="nonzero" xlink:href="#a"/>
            <g fill="#1B5ECE" mask="url(#b)">
                <path d="M0 0h35.142v35.142H0z"/>
            </g>
        </g>
    </g>
</svg>
