<svg xmlns="http://www.w3.org/2000/svg" width="637" height="639" viewBox="0 0 637 639">
    <g fill="none" fill-rule="nonzero" stroke="#F47079" opacity=".251">
        <path d="M318.17 505.5c30.607 0 52.322-1.282 71.893-4.82 23.432-4.237 42.438-11.705 58.08-23.456 35.398-26.594 54.001-75.912 55.935-157.236 1.921-80.803-16.029-130.367-52.856-157.208-16.081-11.72-35.788-19.204-60.004-23.459-20.107-3.532-42.31-4.821-73.048-4.821-26.32 0-45.424 7.815-60.317 23.287-11.904 12.365-20.09 27.387-32.071 55.81-1.06 2.517-5.778 13.823-7.077 16.899-2.812 6.662-5.169 12.067-7.556 17.269-14.681 31.998-30.137 54.498-52.63 72.624-37.161 29.948-30.35 74.326 10.968 116.804 38.746 39.834 99.199 68.307 148.683 68.307z"/>
        <path d="M318.244 569.188c8.642 0 15.407.378 33.187 1.657 8.581.617 13.095.917 18.24 1.182 26.345 1.357 44.702-.09 60.433-6.075 19.458-7.403 33.006-21.663 40.548-44.812 4.138-12.7 10.666-25.387 19.815-39.223 6.965-10.534 13.464-19.137 27.516-36.938a23333.059 23333.059 0 0 0 3.486-4.42c20.419-25.906 30.346-40.185 38.202-56.894 10.13-21.548 13.174-42.12 8.237-63.71-15.58-68.123-44.6-129.047-84.243-173.195-44.28-49.311-100.156-76.26-165.42-76.26-35.367 0-61.047 10.516-81.066 31.332-15.994 16.63-26.985 36.821-43.073 75.02-1.423 3.38-7.753 18.568-9.496 22.698-3.773 8.949-6.935 16.207-10.137 23.192-19.692 42.96-40.419 73.162-70.58 97.491-25.856 20.858-36.113 46.746-31.68 75.66 4.06 26.485 20.45 54.802 46.383 81.49 52.026 53.538 133.194 91.805 199.648 91.805z"/>
        <path d="M316.194 638.5c54.31 0 100.605-6.53 135.707-21.23 42.524-17.806 66.736-46.9 69.222-88.964 1.356-22.951 8.042-43.243 19.646-62.355 9.24-15.22 20.609-28.561 37.92-45.805-2.224 2.215 21.579-21.102 27.37-27.198 11.936-12.56 19.705-22.945 24.571-33.723 5.692-12.606 7.12-25.471 3.897-39.614-19.86-87.138-56.857-165.068-107.4-221.544C470.667 34.98 399.416.5 316.194.5c-45.11 0-77.877 13.463-103.417 40.11-11.14 11.621-20.98 25.774-30.481 43.286-7.733 14.252-14.728 29.546-24.443 52.693-1.815 4.322-9.883 23.743-12.103 29.025-4.81 11.442-8.839 20.723-12.92 29.654-25.089 54.918-51.494 93.524-89.914 124.62-32.994 26.705-46.086 59.86-40.428 96.884 5.18 33.902 26.083 70.139 59.154 104.286C127.975 589.548 231.458 638.5 316.194 638.5z"/>
    </g>
</svg>
