<svg xmlns="http://www.w3.org/2000/svg" width="871" height="959" viewBox="0 0 871 959">
    <g fill="none" fill-rule="nonzero" stroke="#F47079" opacity=".251">
        <path d="M478.771 665.5c50.12 0 102.246-21.562 139.429-56.76 38.688-36.622 56.468-83.188 46.089-128.629-11.58-50.695-33.15-96.031-62.611-128.88-32.902-36.685-74.416-56.731-122.907-56.731-26.263 0-45.325 7.815-60.185 23.286-11.878 12.366-20.046 27.387-32.002 55.812-1.058 2.515-5.766 13.822-7.061 16.897-2.807 6.663-5.158 12.068-7.54 17.27-14.65 31.997-30.072 54.497-52.516 72.624-37.082 29.948-30.285 74.326 10.944 116.804 38.662 39.834 98.983 68.307 148.36 68.307z"/>
        <path d="M477.932 730.5c67.364 0 137.42-28.999 187.393-76.337 52.006-49.263 75.91-111.91 61.955-173.052-15.56-68.166-44.543-129.128-84.137-173.304C598.92 258.465 543.114 231.5 477.932 231.5c-35.32 0-60.969 10.523-80.963 31.351-15.973 16.641-26.95 36.845-43.017 75.068-1.422 3.382-7.745 18.579-9.485 22.712-3.769 8.954-6.927 16.217-10.125 23.206-19.667 42.986-40.367 73.207-70.49 97.552-25.824 20.87-36.068 46.775-31.64 75.707 4.056 26.503 20.424 54.837 46.325 81.542 51.96 53.571 133.025 91.862 199.395 91.862z"/>
        <path d="M477.52 798.5c86.091 0 175.617-37.075 239.48-97.596 66.468-62.99 97.024-143.103 79.184-221.293-19.881-87.138-56.916-165.068-107.512-221.544C632.154 194.98 560.83 160.5 477.521 160.5c-45.158 0-77.958 13.463-103.525 40.11-11.151 11.621-21.002 25.774-30.513 43.286-7.74 14.252-14.743 29.546-24.468 52.693-1.816 4.322-9.893 23.743-12.116 29.025-4.814 11.442-8.847 20.723-12.932 29.654-25.116 54.918-51.548 93.524-90.008 124.62-33.028 26.705-46.133 59.86-40.47 96.884 5.187 33.902 26.11 70.139 59.216 104.286C289.106 749.548 392.697 798.5 477.521 798.5z"/>
        <path d="M477.044 872.5c106.164 0 216.561-45.673 295.314-120.233 81.97-77.605 119.655-176.313 97.652-272.656-24.515-107.338-70.18-203.335-132.569-272.908C667.743 128.98 579.781 86.5 477.044 86.5c-55.702 0-96.17 16.593-127.711 49.436-13.755 14.321-25.904 31.76-37.634 53.337-9.545 17.557-18.18 36.396-30.17 64.907-2.24 5.323-12.197 29.243-14.937 35.748-5.934 14.09-10.906 25.52-15.941 36.519-14.365 31.38-28.462 57.317-44.699 81.008-19.113 27.89-40.78 51.876-66.232 72.434-40.748 32.915-56.921 73.79-49.933 119.43 6.398 41.78 32.204 86.43 73.033 128.503C244.701 812.196 372.44 872.5 477.044 872.5z"/>
        <path d="M475.41 958.5c129.47 0 264.101-55.666 360.141-146.54 99.97-94.59 145.932-214.909 119.095-332.349-29.893-130.813-85.58-247.808-161.661-332.6C707.985 52.278 600.707.5 475.41.5c-67.945 0-117.314 20.232-155.793 60.273-16.778 17.46-31.597 38.718-45.903 65.018-11.64 21.398-22.17 44.358-36.79 79.102-2.73 6.488-14.87 35.635-18.211 43.561-7.236 17.17-13.298 31.096-19.436 44.498-17.512 38.232-34.698 69.833-54.49 98.696-23.299 33.977-49.71 63.197-80.733 88.241-49.714 40.133-69.448 89.98-60.921 145.632 7.804 50.938 39.28 105.366 89.076 156.648C192.064 885.003 347.837 958.5 475.41 958.5z"/>
    </g>
</svg>
