<svg xmlns="http://www.w3.org/2000/svg" xmlns:xlink="http://www.w3.org/1999/xlink" width="66" height="65" viewBox="0 0 66 65">
    <defs>
        <path id="a" d="M11.215 20.871c5.421 0 11.214 1.783 11.214 6.778 0 .375-.266.678-.593.678H.593c-.327 0-.593-.303-.593-.678 0-4.995 5.793-6.778 11.215-6.778zM19.766 0c1.292 0 2.534.449 3.693 1.33.398.305.332.99-.11 1.194l-4.088 1.87c2.606.074 6.832.978 8.618 5.752.163.44-.109.92-.513.946-4.483.278-9.343.849-12.602-2.225l-.18 4.542h-1.537c-.327.007-.593.312-.593.685 0 .375.266.677.593.677h1.483l-.055 1.349h-2.614c-.327.007-.593.312-.593.685 0 .375.266.684.593.677h2.56l-.088 2.241a23.734 23.734 0 0 0-3.118-.207c-1.225 0-2.463.095-3.664.287l5.107-10.62C8.886 11.398 5.193 11.337 1.1 11.092c-.41-.026-.677-.514-.514-.945 1.786-4.774 6.012-5.68 8.618-5.753L5.117 2.524c-.443-.203-.507-.89-.108-1.194C6.167.447 7.409 0 8.7 0c2.493 0 4.566 1.68 5.533 3.65C15.2 1.68 17.272 0 19.766 0z"/>
    </defs>
    <g fill="none" fill-rule="evenodd">
        <path fill="#FFF0E3" d="M21.514 0h23.104c7.171 0 9.772.747 12.393 2.149a14.618 14.618 0 0 1 6.082 6.081c1.402 2.622 2.148 5.222 2.148 12.393v23.104c0 7.171-.746 9.772-2.148 12.394a14.618 14.618 0 0 1-6.082 6.08c-2.621 1.403-5.222 2.15-12.393 2.15H21.514c-7.171 0-9.771-.747-12.393-2.15a14.618 14.618 0 0 1-6.081-6.08C1.637 53.499.89 50.898.89 43.727V20.623c0-7.17.747-9.771 2.15-12.393A14.618 14.618 0 0 1 9.12 2.15C11.744.747 14.344 0 21.515 0z"/>
        <g transform="translate(19.957 19.067)">
            <mask id="b" fill="#fff">
                <use xlink:href="#a"/>
            </mask>
            <use fill="#FFF" fill-rule="nonzero" xlink:href="#a"/>
            <g fill="#F1663D" mask="url(#b)">
                <path d="M-1-4h31.142v35.142H-1z"/>
            </g>
        </g>
    </g>
</svg>
