<svg version="1" xmlns="http://www.w3.org/2000/svg" width="1109.333" height="1109.333" viewBox="0 0 832.000000 832.000000"><path d="M410.5 91.6c-7.1 1.9-13.9 3.6-15 3.8-1.1.2-4.5 1-7.5 1.9-3 .9-6.8 1.9-8.5 2.2-6.2 1.2-7.9 1.6-8.7 2.1-.4.3-1.6.7-2.5.9-4.5.8-34.9 8.8-36 9.4-2.1 1.1 5.4 14.8 11.6 21.1 9.7 10 20.7 14.5 35.1 14.4 13.5-.2 24.4-4.8 34-14.6 4-4.1 9.7-13.3 10.7-17.2 1.8-7.5 2.9-14.6 2.6-17.6-.4-5.7-1.3-10-2.1-9.9-.4 0-6.5 1.6-13.7 3.5zM171.9 113.4c-.2.2-3.3.7-6.9 1-10.5 1.1-24.9 4.3-36.6 8.2-16.9 5.7-17.4 5.8-17.4 6.6 0 .5-.6.8-1.3.8-1.6 0-15 6.9-22.5 11.7-15.2 9.6-33 25.4-44.9 40-5.2 6.3-18.9 27.1-18.7 28.2.1.3-.7 1.8-1.7 3.3-1 1.4-1.9 2.9-1.9 3.2 0 .3-1.1 2.9-2.5 5.8-4.7 10.2-11.8 31.7-12.9 39.3-.2 1.1-.6 3.6-1 5.5-.3 1.9-.8 4.8-1.1 6.5-2.7 14.9-2.6 46.6 0 62.7 1.4 8 1.7 9.8 3.1 15.8.8 3.6 2.4 9.6 3.6 13.5 1.2 3.8 2.1 7.3 2 7.7-.1.5.2.8.8.8.5 0 1 .8 1 1.7 0 3.6 10.8 25.6 17.8 36.4.9 1.5 2.6 4.1 3.7 5.8 1 1.7 2.3 3.1 2.7 3.1.4 0 .8.5.8 1.1 0 3.6 23.5 27.5 37 37.5 41.1 30.6 94.7 42.7 149.5 33.9 2.2-.4 5.8-1.1 8-1.6 2.2-.6 4.9-1.2 6-1.4 8.9-1.5 44.5-15.6 44.5-17.6 0-.5.9-.9 2-.9s2-.3 2-.8c0-.4 1.7-1.6 3.7-2.7 9.8-5.2 28.1-19.9 37.2-29.9 2-2.2 4.5-4.9 5.6-6 3.7-3.9 11.7-14.7 17.2-23.4 4.7-7.5 14.3-26.2 14.3-27.8 0-.4.6-2 1.4-3.7 1.4-3.2 6.2-17.6 7.1-21.3 1.4-5.7 4.4-21.6 5-25.9.5-4.3 1.8-26 1.7-29-.3-6.5-1.4-20.5-1.7-22.4-.2-1.3-.7-4.5-1.1-7-2.1-14.3-6.6-30.5-12.5-44.7-3.6-8.6-10.1-21.3-13-25.6-1.1-1.4-1.9-3.1-1.9-3.7 0-.6-.4-1.1-.8-1.1s-1.6-1.5-2.7-3.3c-5.5-9.5-25.4-31.3-35.9-39.2-2.1-1.7-4.4-3.5-5-4-.6-.6-3.3-2.6-6.1-4.4-15.6-10.6-36.6-20.6-51.3-24.6-3.1-.9-7.9-2.2-10.7-3-5.5-1.4-9.6-2.2-16.5-3.1-2.5-.3-5.8-.9-7.5-1.3-3-.8-40.8-1.4-41.6-.7zm30.1 81.1c4.1.4 7.8.9 8.3 1.2.4.2 2 .6 3.5.9 6.9 1.1 29 10.6 31.2 13.3.3.3 2.3 1.8 4.5 3.2 4.7 3.1 17.6 16 20.8 20.9 1.2 1.9 3 4.5 3.9 5.9 11.2 16.6 18.1 41.7 17.8 64.5-.2 15.5-.1 15.1-4 10.9-1.4-1.4-4.3-3.8-6.5-5.2-2.2-1.4-4.2-2.8-4.5-3.1-.5-.5-3.6-1.7-11-4.5-6.9-2.6-20.7-3.6-28.2-2-23.2 4.8-40.3 21.3-46.5 45-1.2 4.5-.9 21.1.5 26 4.2 15.2 14.3 28.7 27 36.1 1.7 1 3.2 2.1 3.2 2.5 0 .6-11.8 3.7-18 4.7-6.5 1-26.5.6-33-.7-25.8-5.3-45.5-17.5-60.5-37.5-4.5-6-12.4-19.7-13.3-23.1-.1-.6-1.3-4.3-2.7-8.3-2.3-6.4-3.2-10.2-5.1-20.7-.4-2.4-1.4-14.3-1.5-19-.1-3 1.1-19.4 1.6-21.5.3-1.4.8-4.3 1.1-6.5 1.8-11.8 10.4-32 18.4-43.1 6.1-8.4 17.3-19.2 25.8-24.8 7.1-4.7 21.7-11.3 27-12.2 1.5-.3 3.5-.7 4.4-1 3.1-.9 6.3-1.4 13.3-2 3.9-.4 7.1-.7 7.2-.8.3-.2 8.2.2 15.3.9zM622.9 113.4c-.2.2-2.9.7-6 1-3.1.4-6.6.8-7.7 1.1-1.1.2-3.5.6-5.3.9-1.9.3-6.1 1.3-9.4 2.1-3.3.8-6.9 1.7-7.9 2-4.7 1.1-15.2 4.9-16.5 5.9-.8.6-1.5.9-1.5.8-.4-1.4-20.8 8.9-31.1 15.7-4.3 2.8-8.1 5.1-8.6 5.1-.4 0-.9.3-1.1.7-.1.5-2.5 2.6-5.3 4.7-8.6 6.8-26.7 25.7-33.2 34.8-3.5 4.7-6.3 8.9-6.3 9.2 0 .3-1.3 2.5-2.9 4.9-2.9 4.1-12.1 22-12.6 24.2-.1.5-.8 2.3-1.4 4-4.7 11.2-10 30.6-11.6 42.5-1.5 11.4-1.9 18.1-1.9 31.5 0 13.4.7 25.3 1.8 31.2.3 1.1.7 3.7 1 5.8 2.5 15.6 9.8 38 17.2 52.8 2.5 4.9 11.9 21 13.6 23.2.4.5 3.5 4.6 6.9 9 30.2 39.2 79.4 65 131.4 69.2 9.3.7 29.6 1 30.9.4.5-.2 2.5-.5 4.5-.6 2-.1 6.1-.6 9.1-1 3-.5 6-.9 6.5-1 2.8-.3 12.1-2.1 13.3-2.5.4-.2 1.2-.4 1.7-.5.6-.2 1.3-.4 1.8-.5.4-.1 1-.3 1.5-.4 9.8-2.6 22.5-7.1 26-9.2 1.2-.8 2.2-1.2 2.2-.9 0 .7 12.1-5.5 14.3-7.4.9-.8 1.7-1.1 1.7-.8 0 .6 6-3.1 8.6-5.2.6-.5 2.5-1.6 4.2-2.5 1.8-.9 3.2-2.1 3.2-2.6s.8-1.1 1.8-1.4c.9-.4 3.5-2.2 5.7-4.1 2.2-1.9 4.2-3.5 4.5-3.5 1.2 0 20.9-20.6 24.6-25.6 1-1.4 2.7-3.5 3.6-4.6 1-1.1 3.2-4.4 5-7.2 1.8-2.8 3.5-5.3 3.8-5.6.7-.7 2.8-4.4 7.7-14 5.4-10.7 10-22.2 13.9-35.5.6-1.8 3.5-14.9 4-17.5.2-1.4.6-3.4.9-4.5 2-9.1 2.7-46 1.2-57-.4-2.8-1-6.8-1.2-9-1-7.7-6.7-28.8-10.1-37.8-4-10.4-14.1-31-15.5-31.5-.5-.2-.9-.8-.9-1.3 0-1.3-8.4-13.4-13.8-19.9-8.7-10.5-28.3-29.2-32.9-31.3-1.3-.6-2.3-1.4-2.3-1.9 0-.4-.6-.8-1.4-.8-.8 0-1.6-.4-1.8-.9-.1-.5-3.4-2.8-7.3-5.1-21.8-13.3-43.9-21.4-69.7-25.6-1.6-.2-4.3-.7-6-1-3.6-.7-44.3-1.6-44.9-1zm28 81c.6.4 1.5.5 1.9.2 1.4-.8 18.1 3 25.3 5.7 15.3 5.9 29.9 16.3 40.5 28.9 3.3 3.9 10.4 14.6 10.4 15.7 0 .5.4 1.1.8 1.3.4.1 1.9 3 3.4 6.3 5.6 12.7 9.1 26 10.3 39.5.4 4.1.9 7.8 1.1 8.2.2.4 0 .9-.6 1.3s-.8 1-.6 1.4c.9 1.4.7 12.1-.3 15 0 .2-1.3-.9-2.8-2.4-6.7-6.7-19.6-13.1-30.3-15.1-6.2-1.1-17.5-.6-23.9 1.1-5.7 1.4-12.9 4.3-14.1 5.5-.3.3-1.8 1.2-3.3 1.9-7 3.7-17.1 15.5-21.6 25.5-2.3 5-2.5 5.5-4.2 14.6-2 10.2 1.4 30.1 6 35.4.9 1 1.5 2 1.3 2.2-1.2 1.9 13.9 17.4 19.8 20.4 4.1 2.1 4.3 2.3 2.5 3.6-1 .8-2.4 1.4-2.9 1.5-.6 0-1.8.2-2.6.4s-2.8.6-4.5 1c-14.7 3.2-36.8 2.4-49.5-1.7-1.9-.7-4-1.3-4.6-1.4-.6-.1-3.3-1.2-6-2.4-2.7-1.3-5.4-2.4-5.9-2.5-1.5-.4-12.3-7.3-16.9-10.9-4.9-3.8-11.9-10.9-15.5-15.6-1.4-1.9-2.9-3.7-3.2-4-1.1-.9-10.9-18.4-10.9-19.5 0-.5-.6-2.1-1.3-3.5-.7-1.4-1.9-4.5-2.6-7-.7-2.5-1.7-5.6-2.1-7-3.4-10.4-5.1-33.7-3.4-47.3.3-2.9.7-6.4.9-7.8.5-5.4 4.1-19.1 6.4-24.4 2.9-6.7 9.7-19.7 12.4-23.4 8-11.4 20.9-22.8 33.7-29.8 5.4-2.9 15.3-6.9 19.5-7.9 7.1-1.6 8.9-1.9 18-3.2 5.9-.9 17.8-.7 19.4.2zM1.2 551.9c-1.1.7-1.3 3.3-.8 12.2.3 6.3.9 12.5 1.2 13.9.3 1.4.7 4.3.9 6.5.3 3.3 1.5 9.3 4 19.6 1.3 5.6 4.9 16.6 5.7 17.6.6.7.8 1.3.5 1.3-.8 0 5.8 15.2 10.7 24.4 4.4 8.2 7.5 13 15.4 24 11.5 15.8 32.1 34.5 49 44.4 4.8 2.8 9.2 5.6 9.9 6.2.7.5 1.5 1 1.9 1 .5 0 9.3 3.9 15.9 7.1 1.2.6 2.7 1.1 3.5 1.3.8.2 2.9.8 4.5 1.5 3.9 1.6 18.3 5.8 22 6.4 1.7.3 4.1.8 5.5 1.1 13 3 46.5 4.2 62 2.3 3.6-.5 7.6-1 9-1.1 1.4-.2 5.2-.9 8.5-1.7 3.3-.7 6.5-1.4 7-1.4.6 0 1.6-.4 2.3-.8.6-.5 1.2-.6 1.2-.3 0 .8 22.9-7.3 29.6-10.5 3.4-1.6 6.7-2.9 7.3-2.9.6 0 1.1-.5 1.1-1 0-.6.6-1 1.3-1 .6 0 4-1.8 7.5-4 3.4-2.2 6.6-4 7.1-4 .4 0 1.6-.8 2.7-1.8 1-.9 3.2-2.5 4.7-3.5 5.9-3.8 19.8-15.9 26.3-23 5.9-6.3 16.4-19.3 16.4-20.2 0-.4.6-1.3 1.3-2 2.7-3.1 3.7-4.4 3.7-5.1 0-.3.8-1.8 1.9-3.2 3.3-4.7 11.8-22.4 15.5-32.2 7.1-19.2 11.3-39.3 12.1-57.8.2-4.6.6-8.6.9-8.9.3-.3.1-1.4-.4-2.4-.8-1.4-2.2-1.8-5.8-1.8H365c-2.5 0-5.8.1-7.5.2-1.6.1-4.2-.1-5.7-.5-1.6-.3-2.8-.4-2.8 0s-2.8.6-6.2.5c-7.7-.3-11.4-.3-25.1 0-5.9.1-10.7-.2-10.7-.6 0-.5-.5-.5-1.2-.1s-4 .7-7.4.6c-5.4-.1-6.3.1-6.2 1.6.3 6.5-1.5 20.7-3.9 29.7-.8 3.3-1.6 6.8-1.8 7.7-.6 2.8-7.9 18.6-11.4 24.6-3 5.2-11.2 15.3-15.6 19.4-8.4 7.7-12 10.8-12.7 10.8-.4 0-2.6 1.3-5 2.9-6.1 4.1-16.9 8.6-26.8 11.2-9.4 2.5-34 3.6-41.5 1.9-2.2-.5-5.1-1.1-6.5-1.3-8.7-1.6-25.6-8.7-31.6-13.2-1.8-1.4-3.7-2.5-4.3-2.5-.5 0-5-3.9-9.9-8.8-12.8-12.6-20.5-24.7-26.2-41.2-1.7-5.1-3.3-10.1-3.6-11.3-.2-1.2-.8-4.5-1.4-7.2-.6-2.8-1.2-7.9-1.4-11.5-.3-3.6-.5-6.7-.6-7-.1-.3-.3-1.6-.3-3-.2-2-.8-2.5-3.7-2.7-1.9-.1-4.3-.5-5.2-.7-1-.2-1.8-.1-1.8.2 0 .4-5.2.7-11.5.7s-11.5-.4-11.5-.8c0-.5-.5-.5-1.1-.1-1.6 1-33.9 1.1-33.9.1 0-.5-.5-.5-1.1-.1-1.5.9-14.8 1.1-15.1.2-.2-.4-.9-.4-1.6.1zM436.3 591.1c-4.9.9-8.7 2.7-12.7 6.2-3.1 2.7-4.6 2.7-4.6-.1 0-3.5-1.7-4.4-7.9-4.6-3.4-.1-6.5.1-6.9.4-.4.3-.8 15.9-.7 34.8 0 39.3-1.2 35.3 10.5 34.9l6.5-.2.1-21.5c.1-27.2.9-30.2 8.9-33.6 3.9-1.6 9.8-1.2 12.2.8 4.2 3.4 4.7 6.5 4.8 30.8l.1 23.5h16.8l.1-22.5c.1-19.8.3-23 1.9-26.3 1.1-2.1 2.9-4.5 4.2-5.4 3.1-2 10.3-2.4 13.6-.7 5.3 2.7 5.9 5.9 6.1 31.5l.2 23.4 8.3.1c6.8.1 8.2-.2 8.3-1.5 0-.9.1-12.5.1-25.8 0-27.7-.9-32.8-6.4-38.3-9.4-9.2-25.9-8.4-37 1.8-1.6 1.4-2.8 2.1-2.8 1.4 0-1.8-6.2-7.1-9.6-8.2-4.2-1.4-9.1-1.7-14.1-.9zM549.2 591.6c-14.1 2.9-24.3 12.7-28 26.9-.3 1.1-.5 5.8-.5 10.5 0 7.5.4 9.2 3.2 15 4 8 8.5 12.8 15.3 16.2 8.5 4.1 9.9 4.5 17.8 4.2 8.1-.3 8.9-.5 13.5-2.3 5.2-2 6.9-3.1 11.1-7 18.8-17.3 14.4-49.2-8.2-60.5-4.4-2.2-7.1-2.9-15.9-4.1-1.1-.1-4.9.4-8.3 1.1zm17.5 17.6c4.1 2.5 7.8 7.3 8.8 11.3 2.2 9.6-.4 19.4-6.6 24.3-3.2 2.6-5.3 3.3-12.1 3.9-11 1.1-20.3-9.6-19.7-22.4.2-2.6.9-5.9 1.6-7.3.7-1.4 1.3-2.9 1.3-3.3 0-1.7 7.2-7.2 10.8-8.4 4.8-1.5 11.8-.7 15.9 1.9zM640 591c-4.4.8-10.9 4.1-13.4 6.9-2.6 2.9-3.3 2.7-4-1.4-.7-3.7-.7-3.7-8.6-3.7-2.7 0-5.4 0-5.8.1-.4.1-.8 15.7-.8 34.8l.1 34.8h16.9l.1-21.5c.1-14.2.5-22.7 1.3-25.1 2.3-6.5 8.4-10.1 16.2-9.4 4.9.5 7.3 2 9.6 5.9 1.6 2.7 1.9 5.8 2 26.1.1 12.6.3 23.3.3 23.7.1.3 3.8.6 8.4.5l8.2-.2V637c-.1-28.6-.8-32.9-6.8-39.2-5.5-5.8-14.5-8.3-23.7-6.8zM714.9 591.1c-5.2.8-14.9 4.7-14.9 6 0 .5-.5.9-1.1.9-3.4 0-12.1 13.6-13.4 21-3.9 21 7.3 39.9 26.4 44.8 4.9 1.2 17.1.8 19.9-.7.9-.5 1.9-.9 2.2-.9 4.3-.3 14.1-8.9 16.5-14.5l1.3-3.2-6.6-2.1-6.7-2.1-4 4.3c-4.3 4.5-8.4 6.2-15 5.9-7.6-.3-13.1-3.9-16.6-10.7-3.5-6.9-4.7-6.6 23.4-6.7h26.4c.8-.1 1-2.6.7-8.7-1.2-22.5-17.3-36.5-38.5-33.3zm14.1 15.5c3.6 1.5 8.3 7.2 9.3 11.1.4 1.8.1 2.3-1.6 2.4-10.4.4-34.1.3-34.8-.2-1.4-.9 1.5-7 5-10.3 3.3-3.2 10.9-5.6 15.6-4.9 1.7.2 4.6 1.1 6.5 1.9zM768.1 593.5c-.8 1.3-.6 40.6.3 46.8 1.4 9.5 5.3 15.2 13.1 19.1 4.3 2.2 6 2.5 13 2.2 8.4-.3 12.6-1.8 17.4-6.2l2.6-2.4.3 4.9c.8 12.8-5.4 20.4-16.5 20.2-6.5 0-11.1-2.4-13.3-6.7-1.8-3.4-3-4.5-4.4-3.6-.6.3-2.5.7-4.3.9-4.4.5-8.3 2-8.3 3.3 0 2.5 4.4 9.3 8.2 13 5 4.6 12.8 7.4 21.6 7.6 14.9.4 25.5-5.6 31-17.3l2.7-5.8.3-38.5.3-38.5-8 .1c-4.4 0-8.3.2-8.5.5-.3.3-.6 9.7-.6 21-.1 19.9-.2 20.7-2.6 24.6-5.2 8.8-19.1 10.1-25.1 2.3-2-2.5-2.6-9.5-2.7-29.5l-.1-18.9-7.8-.1c-4.3 0-8.2.4-8.6 1z"/></svg>