<?xml version="1.0" encoding="UTF-8"?>
<svg width="48px" height="48px" viewBox="0 0 48 48" version="1.1" xmlns="http://www.w3.org/2000/svg" xmlns:xlink="http://www.w3.org/1999/xlink">
    <title>Section / Categories / Entertainment 1</title>
    <g id="Page-1" stroke="none" stroke-width="1" fill="none" fill-rule="evenodd">
        <g id="GoMoney-Categories" transform="translate(-32.000000, -483.000000)">
            <g id="Section-/-Categories-/-Enjoyment" transform="translate(32.000000, 483.000000)">
                <g id="Section-/-Categories-/-Entertainment-1">
                    <g id="Section-/-Categories-/-Entertainment">
                        <g id="Group-4-Copy-2">
                            <g id="Group-2">
                                <g id="Group-5">
                                    <path d="M15.3833112,-6.21504185e-16 L32.6166888,6.21504185e-16 C37.9658012,-3.61111829e-16 39.9055187,0.556953667 41.8610742,1.60279622 C43.8166298,2.64863878 45.3513612,4.18337022 46.3972038,6.13892578 C47.4430463,8.09448133 48,10.0341988 48,15.3833112 L48,32.6166888 C48,37.9658012 47.4430463,39.9055187 46.3972038,41.8610742 C45.3513612,43.8166298 43.8166298,45.3513612 41.8610742,46.3972038 C39.9055187,47.4430463 37.9658012,48 32.6166888,48 L15.3833112,48 C10.0341988,48 8.09448133,47.4430463 6.13892578,46.3972038 C4.18337022,45.3513612 2.64863878,43.8166298 1.60279622,41.8610742 C0.556953667,39.9055187 2.4074122e-16,37.9658012 -4.14336123e-16,32.6166888 L4.14336123e-16,15.3833112 C-2.4074122e-16,10.0341988 0.556953667,8.09448133 1.60279622,6.13892578 C2.64863878,4.18337022 4.18337022,2.64863878 6.13892578,1.60279622 C8.09448133,0.556953667 10.0341988,3.61111829e-16 15.3833112,-6.21504185e-16 Z" id="Rectangle" fill="#E6E3FF"></path>
                                    <g id="Icon-/-Fill-/-Entertainment" transform="translate(11.000000, 11.000000)">
                                        <g>
                                            <rect id="Rectangle" x="0" y="0" width="26" height="26"></rect>
                                            <g id="Group-4" transform="translate(1.000000, 0.769231)" fill="#5D2ADE">
                                                <path d="M22.2666667,8.33580746 C23.2239602,8.33580746 24,9.11184723 24,10.0691408 L24,22.6024741 C24,23.5597677 23.2239602,24.3358075 22.2666667,24.3358075 L1.73333333,24.3358075 C0.776039767,24.3358075 -3.2685456e-16,23.5597677 0,22.6024741 L0,10.0691408 C1.04809955e-16,9.11184723 0.776039767,8.33580746 1.73333333,8.33580746 L22.2666667,8.33580746 Z M9.6078801,13.5669531 L9.6078801,19.0671452 L14.8514645,16.3358075 L9.6078801,13.5669531 Z M6.72221975,0.225633901 L6.81455027,0.302774502 L11.9999666,5.48662796 L15.8917544,1.59646986 C16.1231762,1.36504806 16.4824087,1.33933452 16.7422329,1.51932926 L16.8345634,1.59646986 C17.0659852,1.82789166 17.0916988,2.1871242 16.911704,2.44694838 L16.8345634,2.5392789 L12.4714045,6.90243779 C12.2399827,7.1338596 11.8807502,7.15957313 11.620926,6.97957839 L11.5285955,6.90243779 L5.87174123,1.24558354 C5.6113917,0.985234016 5.6113917,0.56312403 5.87174123,0.302774502 C6.10316303,0.0713526998 6.46239557,0.0456391661 6.72221975,0.225633901 Z" id="Combined-Shape"></path>
                                            </g>
                                        </g>
                                    </g>
                                </g>
                            </g>
                        </g>
                    </g>
                </g>
            </g>
        </g>
    </g>
</svg>