<?xml version="1.0" encoding="UTF-8"?>
<svg width="48px" height="48px" viewBox="0 0 48 48" version="1.1" xmlns="http://www.w3.org/2000/svg" xmlns:xlink="http://www.w3.org/1999/xlink">
    <title>Section / Categories / Family 1</title>
    <g id="Page-1" stroke="none" stroke-width="1" fill="none" fill-rule="evenodd">
        <g id="GoMoney-Categories" transform="translate(-120.000000, -390.000000)">
            <g id="Section-/-Categories-/-Family" transform="translate(120.000000, 390.000000)">
                <g id="Section-/-Categories-/-Family-1">
                    <g id="Section-/-Categories-/-Family">
                        <g id="Group-4-Copy-2">
                            <g id="Group-2">
                                <g id="Group-5">
                                    <path d="M15.3833112,-6.21504185e-16 L32.6166888,6.21504185e-16 C37.9658012,-3.61111829e-16 39.9055187,0.556953667 41.8610742,1.60279622 C43.8166298,2.64863878 45.3513612,4.18337022 46.3972038,6.13892578 C47.4430463,8.09448133 48,10.0341988 48,15.3833112 L48,32.6166888 C48,37.9658012 47.4430463,39.9055187 46.3972038,41.8610742 C45.3513612,43.8166298 43.8166298,45.3513612 41.8610742,46.3972038 C39.9055187,47.4430463 37.9658012,48 32.6166888,48 L15.3833112,48 C10.0341988,48 8.09448133,47.4430463 6.13892578,46.3972038 C4.18337022,45.3513612 2.64863878,43.8166298 1.60279622,41.8610742 C0.556953667,39.9055187 2.4074122e-16,37.9658012 -4.14336123e-16,32.6166888 L4.14336123e-16,15.3833112 C-2.4074122e-16,10.0341988 0.556953667,8.09448133 1.60279622,6.13892578 C2.64863878,4.18337022 4.18337022,2.64863878 6.13892578,1.60279622 C8.09448133,0.556953667 10.0341988,3.61111829e-16 15.3833112,-6.21504185e-16 Z" id="Rectangle" fill="#F5E8FF"></path>
                                    <g id="Icon-/-Fill-/-Family" transform="translate(11.000000, 11.000000)">
                                        <g>
                                            <rect id="Rectangle" x="0" y="0" width="26" height="26"></rect>
                                            <g id="Color" transform="translate(0.000000, 2.000000)">
                                                <path d="M16.9655601,8.75242105 C18.2065834,8.75242105 19.2126316,9.75846922 19.2126316,10.9994925 L19.2126316,19.4560864 C19.2126316,20.6971097 18.2065834,21.7031579 16.9655601,21.7031579 L8.50896621,21.7031579 C7.26794291,21.7031579 6.26189474,20.6971097 6.26189474,19.4560864 L6.26189474,10.9994925 C6.26189474,9.75846922 7.26794291,8.75242105 8.50896621,8.75242105 L16.9655601,8.75242105 Z M14.370164,12.4526316 C13.9429821,12.4526316 13.5517657,12.5854574 13.2073552,12.8473885 C13.0335691,12.9796035 12.8761001,13.14136 12.7372632,13.3301592 C12.5984827,13.1414155 12.4409572,12.9796035 12.2671146,12.8473885 C11.9227606,12.5854574 11.5315442,12.4526316 11.1043623,12.4526316 C10.5328668,12.4526316 10.0071609,12.6776913 9.62407486,13.0863306 C9.24556211,13.4901943 9.03705263,14.0419322 9.03705263,14.6399814 C9.03705263,15.2555223 9.27029192,15.8189769 9.77104215,16.4132501 C10.2190016,16.944831 10.8628233,17.4844635 11.6083873,18.1093333 C11.8629687,18.322732 12.1515395,18.5646171 12.4511766,18.8222724 C12.5303346,18.8904623 12.6319074,18.928 12.7372632,18.928 C12.8425624,18.928 12.9441917,18.8904623 13.0232368,18.8223835 C13.3228739,18.5646726 13.6116141,18.3226764 13.8663084,18.1091667 C14.6117595,17.484408 15.2555812,16.944831 15.7035406,16.4131946 C16.2042909,15.8189769 16.4374737,15.2555223 16.4374737,14.6399259 C16.4374737,14.0419322 16.2289642,13.4901943 15.850395,13.0863306 C15.4673089,12.6776913 14.9416595,12.4526316 14.370164,12.4526316 Z M12.7372632,0.426947368 C14.780833,0.426947368 16.4374737,2.08358805 16.4374737,4.12715789 C16.4374737,6.17072774 14.780833,7.82736842 12.7372632,7.82736842 C10.6936933,7.82736842 9.03705263,6.17072774 9.03705263,4.12715789 C9.03705263,2.08358805 10.6936933,0.426947368 12.7372632,0.426947368 Z" id="Combined-Shape" fill="#BC7DF0"></path>
                                                <path d="M6.52234282,9.25052632 C7.51516147,9.25052632 8.32,10.0553649 8.32,11.0481835 L8.32,18.1265533 C8.32,19.119372 7.51516147,19.9242105 6.52234282,19.9242105 L1.79765718,19.9242105 C0.804838535,19.9242105 -4.7237157e-13,19.119372 -4.72937245e-13,18.1265533 L-4.72937245e-13,11.0481835 C-4.72836786e-13,10.0553649 0.804838535,9.25052632 1.79765718,9.25052632 L6.52234282,9.25052632 Z M4.98105263,2.84631579 C6.55302944,2.84631579 7.82736842,4.12065478 7.82736842,5.69263158 C7.82736842,7.26460838 6.55302944,8.53894737 4.98105263,8.53894737 C3.40907583,8.53894737 2.13473684,7.26460838 2.13473684,5.69263158 C2.13473684,4.12065478 3.40907583,2.84631579 4.98105263,2.84631579 Z" id="Combined-Shape" fill="#BC7DF0"></path>
                                                <path d="M24.147606,9.25052632 C25.1404246,9.25052632 25.9452632,10.0553649 25.9452632,11.0481835 L25.9452632,18.1265533 C25.9452632,19.119372 25.1404246,19.9242105 24.147606,19.9242105 L19.4229203,19.9242105 C18.4301017,19.9242105 17.6252632,19.119372 17.6252632,18.1265533 L17.6252632,11.0481835 C17.6252632,10.0553649 18.4301017,9.25052632 19.4229203,9.25052632 L24.147606,9.25052632 Z M22.6063158,2.84631579 C24.1782926,2.84631579 25.4526316,4.12065478 25.4526316,5.69263158 C25.4526316,7.26460838 24.1782926,8.53894737 22.6063158,8.53894737 C21.034339,8.53894737 19.76,7.26460838 19.76,5.69263158 C19.76,4.12065478 21.034339,2.84631579 22.6063158,2.84631579 Z" id="Combined-Shape-Copy" fill="#BC7DF0" transform="translate(21.785263, 11.385263) scale(-1, 1) translate(-21.785263, -11.385263) "></path>
                                                <path d="M17.4841151,8.75242105 C18.4387484,8.75242105 19.2126316,9.52630426 19.2126316,10.4809376 L19.2126316,19.9746414 C19.2126316,20.9292747 18.4387484,21.7031579 17.4841151,21.7031579 L7.99041126,21.7031579 C7.03577794,21.7031579 6.26189474,20.9292747 6.26189474,19.9746414 L6.26189474,10.4809376 C6.26189474,9.52630426 7.03577794,8.75242105 7.99041126,8.75242105 L17.4841151,8.75242105 Z M17.4841151,9.464 L7.99041126,9.464 C7.46888922,9.464 7.03905888,9.85657877 6.98031537,10.3623412 L6.97347368,10.4809376 L6.97347368,19.9746414 C6.97347368,20.4961634 7.36605246,20.9259938 7.87181485,20.9847373 L7.99041126,20.9915789 L17.4841151,20.9915789 C18.0056371,20.9915789 18.4354674,20.5990002 18.4942109,20.0932378 L18.5010526,19.9746414 L18.5010526,10.4809376 C18.5010526,9.95941554 18.1084739,9.52958519 17.6027115,9.47084168 L17.4841151,9.464 Z" id="Rectangle-Copy" fill="#F5E8FF"></path>
                                            </g>
                                        </g>
                                    </g>
                                </g>
                            </g>
                        </g>
                    </g>
                </g>
            </g>
        </g>
    </g>
</svg>