<?xml version="1.0" encoding="UTF-8"?>
<svg width="48px" height="48px" viewBox="0 0 48 48" version="1.1" xmlns="http://www.w3.org/2000/svg" xmlns:xlink="http://www.w3.org/1999/xlink">
    <title>Section / Categories  / Payroll 1</title>
    <g id="Page-1" stroke="none" stroke-width="1" fill="none" fill-rule="evenodd">
        <g id="GoMoney-Categories" transform="translate(-252.000000, -579.000000)">
            <g id="Section-/-Categories--/-Payroll" transform="translate(252.000000, 579.000000)">
                <g id="Section-/-Categories--/-Payroll-1">
                    <g id="Section-/-Categories--/-Payroll">
                        <g id="Group-4-Copy-2">
                            <g id="Group-2">
                                <g id="Group-5">
                                    <path d="M15.3833112,-6.21504185e-16 L32.6166888,6.21504185e-16 C37.9658012,-3.61111829e-16 39.9055187,0.556953667 41.8610742,1.60279622 C43.8166298,2.64863878 45.3513612,4.18337022 46.3972038,6.13892578 C47.4430463,8.09448133 48,10.0341988 48,15.3833112 L48,32.6166888 C48,37.9658012 47.4430463,39.9055187 46.3972038,41.8610742 C45.3513612,43.8166298 43.8166298,45.3513612 41.8610742,46.3972038 C39.9055187,47.4430463 37.9658012,48 32.6166888,48 L15.3833112,48 C10.0341988,48 8.09448133,47.4430463 6.13892578,46.3972038 C4.18337022,45.3513612 2.64863878,43.8166298 1.60279622,41.8610742 C0.556953667,39.9055187 2.4074122e-16,37.9658012 -4.14336123e-16,32.6166888 L4.14336123e-16,15.3833112 C-2.4074122e-16,10.0341988 0.556953667,8.09448133 1.60279622,6.13892578 C2.64863878,4.18337022 4.18337022,2.64863878 6.13892578,1.60279622 C8.09448133,0.556953667 10.0341988,3.61111829e-16 15.3833112,-6.21504185e-16 Z" id="Rectangle" fill="#E3FEFF"></path>
                                    <g id="Icon-/-Fill-/-Payroll" transform="translate(11.000000, 11.000000)">
                                        <g>
                                            <rect id="Rectangle" x="0" y="0" width="26" height="26"></rect>
                                            <rect id="Rectangle" fill="#15777C" x="0" y="5" width="26" height="16"></rect>
                                            <path d="M25,10 L25,15 L25,15 C22.790861,15 21,17.0147186 21,19.5 C21,19.6689495 21.0082761,19.8357244 21.024397,19.9998395 L4.97560298,19.9998395 C4.99172392,19.8357244 5,19.6689495 5,19.5 C5,17.0147186 3.209139,15 1,15 L1,10 L1,10 C3.05886581,10 4.75442358,8.25005499 4.97557209,6.00015382 L21.0244279,6.00015382 C21.2455764,8.25005499 22.9411342,10 25,10 Z" id="Combined-Shape" fill="#26BBC2"></path>
                                            <path d="M13,9 C15.209139,9 17,10.790861 17,13 C17,15.209139 15.209139,17 13,17 C10.790861,17 9,15.209139 9,13 C9,10.790861 10.790861,9 13,9 Z M13,10 C11.3431458,10 10,11.3431458 10,13 C10,14.6568542 11.3431458,16 13,16 C14.6568542,16 16,14.6568542 16,13 C16,11.3431458 14.6568542,10 13,10 Z" id="Oval" fill="#15777C"></path>
                                        </g>
                                    </g>
                                </g>
                            </g>
                        </g>
                    </g>
                </g>
            </g>
        </g>
    </g>
</svg>