<?xml version="1.0" encoding="UTF-8"?>
<svg width="48px" height="48px" viewBox="0 0 48 48" version="1.1" xmlns="http://www.w3.org/2000/svg" xmlns:xlink="http://www.w3.org/1999/xlink">
    <title>Section / Categories / Transportation 1</title>
    <defs>
        <path d="M21.9396667,7.04166667 C21.8671742,7.04195606 21.7975673,7.01328658 21.746307,6.96202629 C21.6950467,6.91076599 21.6663773,6.8411591 21.6666667,6.76866667 L21.6666667,2.70833333 C21.6666667,1.99003867 21.3813252,1.30116349 20.8734142,0.793252468 C20.3655032,0.285341443 19.676628,0 18.9583333,0 L7.04166667,0 C5.54589547,0 4.33333333,1.21256214 4.33333333,2.70833333 L4.33333333,6.77083333 C4.33333333,6.92041045 4.21207712,7.04166667 4.0625,7.04166667 L1.625,7.04166667 C0.727537282,7.04166667 0,7.76920395 0,8.66666667 L0,14.0833333 C0,14.9807961 0.727537282,15.7083333 1.625,15.7083333 C2.22330848,15.7083333 2.70833333,15.2233085 2.70833333,14.625 L2.70833333,9.20833333 L4.0625,9.20833333 C4.21207712,9.20833333 4.33333333,9.32958955 4.33333333,9.47916667 L4.33333333,21.10225 C4.33368665,21.9098857 4.92712573,22.594694 5.7265,22.7099167 C5.85985728,22.729322 5.95865971,22.843822 5.95833333,22.9785833 L5.95833333,24.9166667 C5.95833333,25.5149751 6.44335819,26 7.04166667,26 L9.20833333,26 C9.80664181,26 10.2916667,25.5149751 10.2916667,24.9166667 L10.2916667,22.9980833 C10.2913773,22.9261655 10.3198185,22.8571097 10.3706724,22.8062558 C10.4215264,22.7554018 10.4905822,22.7269606 10.5625,22.72725 L15.4375,22.72725 C15.5094178,22.7269606 15.5784736,22.7554018 15.6293276,22.8062558 C15.6801815,22.8571097 15.7086227,22.9261655 15.7083333,22.9980833 L15.7083333,24.9166667 C15.7083333,25.5149751 16.1933582,26 16.7916667,26 L18.9583333,26 C19.5566418,26 20.0416667,25.5149751 20.0416667,24.9166667 L20.0416667,22.9785833 C20.041805,22.8439946 20.1403815,22.7297564 20.2735,22.7099167 C21.0728743,22.594694 21.6663133,21.9098857 21.6666667,21.10225 L21.6666667,9.47916667 C21.6666667,9.32958955 21.7879229,9.20833333 21.9375,9.20833333 L23.2916667,9.20833333 L23.2916667,14.60225 C23.2916667,15.2005585 23.7766915,15.6855833 24.375,15.6855833 C25.2724627,15.6855833 26,14.9580461 26,14.0605833 L26,8.64391667 C26,7.74645395 25.2724627,7.01891667 24.375,7.01891667 L21.9396667,7.04166667 Z M18.9583333,8.125 C19.2574876,8.125 19.5,8.36751243 19.5,8.66666667 L19.5,15.1666667 C19.5,15.4658209 19.2574876,15.7083333 18.9583333,15.7083333 L7.04166667,15.7083333 C6.74251243,15.7083333 6.5,15.4658209 6.5,15.1666667 L6.5,8.66666667 C6.5,8.36751243 6.74251243,8.125 7.04166667,8.125 L18.9583333,8.125 Z M10.2916667,4.33333333 L10.2916667,3.25 C10.2916667,2.95084576 10.5341791,2.70833333 10.8333333,2.70833333 L15.1666667,2.70833333 C15.4658209,2.70833333 15.7083333,2.95084576 15.7083333,3.25 L15.7083333,4.33333333 C15.7083333,4.63248757 15.4658209,4.875 15.1666667,4.875 L10.8333333,4.875 C10.5341791,4.875 10.2916667,4.63248757 10.2916667,4.33333333 Z M11.1041667,19.5 C11.1041667,19.9487314 10.740398,20.3125 10.2916667,20.3125 L7.04166667,20.3125 C6.59293531,20.3125 6.22916667,19.9487314 6.22916667,19.5 C6.22916667,19.0512686 6.59293531,18.6875 7.04166667,18.6875 L10.2916667,18.6875 C10.740398,18.6875 11.1041667,19.0512686 11.1041667,19.5 Z M15.7083333,20.3125 C15.259602,20.3125 14.8958333,19.9487314 14.8958333,19.5 C14.8958333,19.0512686 15.259602,18.6875 15.7083333,18.6875 L18.9583333,18.6875 C19.4070647,18.6875 19.7708333,19.0512686 19.7708333,19.5 C19.7708333,19.9487314 19.4070647,20.3125 18.9583333,20.3125 L15.7083333,20.3125 Z" id="path-1"></path>
    </defs>
    <g id="Page-1" stroke="none" stroke-width="1" fill="none" fill-rule="evenodd">
        <g id="GoMoney-Categories" transform="translate(-208.000000, -296.000000)">
            <g id="Section-/-Categories-/-Transport" transform="translate(208.000000, 296.000000)">
                <g id="Section-/-Categories-/-Transportation">
                    <g id="Group-4-Copy-2">
                        <g id="Group-2">
                            <g id="Group-5">
                                <path d="M15.3833112,-6.21504185e-16 L32.6166888,6.21504185e-16 C37.9658012,-3.61111829e-16 39.9055187,0.556953667 41.8610742,1.60279622 C43.8166298,2.64863878 45.3513612,4.18337022 46.3972038,6.13892578 C47.4430463,8.09448133 48,10.0341988 48,15.3833112 L48,32.6166888 C48,37.9658012 47.4430463,39.9055187 46.3972038,41.8610742 C45.3513612,43.8166298 43.8166298,45.3513612 41.8610742,46.3972038 C39.9055187,47.4430463 37.9658012,48 32.6166888,48 L15.3833112,48 C10.0341988,48 8.09448133,47.4430463 6.13892578,46.3972038 C4.18337022,45.3513612 2.64863878,43.8166298 1.60279622,41.8610742 C0.556953667,39.9055187 2.4074122e-16,37.9658012 -4.14336123e-16,32.6166888 L4.14336123e-16,15.3833112 C-2.4074122e-16,10.0341988 0.556953667,8.09448133 1.60279622,6.13892578 C2.64863878,4.18337022 4.18337022,2.64863878 6.13892578,1.60279622 C8.09448133,0.556953667 10.0341988,3.61111829e-16 15.3833112,-6.21504185e-16 Z" id="Rectangle" fill="#E3EDFF"></path>
                                <g id="Icon-/-Fill-/-Transportation" transform="translate(11.000000, 11.000000)">
                                    <g id="Color">
                                        <mask id="mask-2" fill="white">
                                            <use xlink:href="#path-1"></use>
                                        </mask>
                                        <use id="Mask" fill="#FFFFFF" fill-rule="nonzero" xlink:href="#path-1"></use>
                                        <g id="Colors-/-Black" mask="url(#mask-2)" fill="#1B5ECE">
                                            <rect id="Color" x="0" y="0" width="26" height="26"></rect>
                                        </g>
                                    </g>
                                </g>
                            </g>
                        </g>
                    </g>
                </g>
            </g>
        </g>
    </g>
</svg>