<?xml version="1.0" encoding="UTF-8"?>
<svg width="48px" height="48px" viewBox="0 0 48 48" version="1.1" xmlns="http://www.w3.org/2000/svg" xmlns:xlink="http://www.w3.org/1999/xlink">
    <title>Section / Categories / Vacay 1</title>
    <g id="Page-1" stroke="none" stroke-width="1" fill="none" fill-rule="evenodd">
        <g id="GoMoney-Categories" transform="translate(-120.000000, -483.000000)">
            <g id="Section-/-Categories-/-Holiday" transform="translate(120.000000, 483.000000)">
                <g id="Section-/-Categories-/-Vacay-1">
                    <g id="Section-/-Categories-/-Vacay">
                        <g id="Group-4-Copy-2">
                            <g id="Group-2">
                                <g id="Group-5">
                                    <path d="M15.3833112,-6.21504185e-16 L32.6166888,6.21504185e-16 C37.9658012,-3.61111829e-16 39.9055187,0.556953667 41.8610742,1.60279622 C43.8166298,2.64863878 45.3513612,4.18337022 46.3972038,6.13892578 C47.4430463,8.09448133 48,10.0341988 48,15.3833112 L48,32.6166888 C48,37.9658012 47.4430463,39.9055187 46.3972038,41.8610742 C45.3513612,43.8166298 43.8166298,45.3513612 41.8610742,46.3972038 C39.9055187,47.4430463 37.9658012,48 32.6166888,48 L15.3833112,48 C10.0341988,48 8.09448133,47.4430463 6.13892578,46.3972038 C4.18337022,45.3513612 2.64863878,43.8166298 1.60279622,41.8610742 C0.556953667,39.9055187 2.4074122e-16,37.9658012 -4.14336123e-16,32.6166888 L4.14336123e-16,15.3833112 C-2.4074122e-16,10.0341988 0.556953667,8.09448133 1.60279622,6.13892578 C2.64863878,4.18337022 4.18337022,2.64863878 6.13892578,1.60279622 C8.09448133,0.556953667 10.0341988,3.61111829e-16 15.3833112,-6.21504185e-16 Z" id="Rectangle" fill="#E3FEFF"></path>
                                    <g id="Icon-/-Fill-/-Vacation" transform="translate(11.000000, 11.000000)">
                                        <g id="Group-3-Copy">
                                            <rect id="Rectangle" x="0" y="0" width="26" height="26"></rect>
                                            <path d="M22.75,0 L22.75,26 L3.25,26 L3.25,0 L22.75,0 Z M19.260119,21.6666667 L6.73988095,21.6666667 C6.38338882,21.6666667 6.08876999,21.9315778 6.0421425,22.2752821 L6.03571429,22.3708333 L6.03571429,22.4069444 C6.03571429,22.7634366 6.30062543,23.0580554 6.64432971,23.1046829 L6.73988095,23.1111111 L19.260119,23.1111111 C19.6166112,23.1111111 19.91123,22.8462 19.9578575,22.5024957 L19.9642857,22.4069444 L19.9642857,22.3708333 C19.9642857,21.9819328 19.6490196,21.6666667 19.260119,21.6666667 Z M13,5.41666667 C10.6067661,5.41666667 8.66666667,7.35676608 8.66666667,9.75 C8.66666667,12.1432339 10.6067661,14.0833333 13,14.0833333 C15.3932339,14.0833333 17.3333333,12.1432339 17.3333333,9.75 C17.3333333,7.35676608 15.3932339,5.41666667 13,5.41666667 Z M14.0585728,10.3640747 C13.9963833,11.1274373 13.8200054,11.8158409 13.5631019,12.329648 C13.3239212,12.8080094 13.0969628,13 13,13 C12.9030372,13 12.6760788,12.8080094 12.4368981,12.329648 C12.1799946,11.8158409 12.0036167,11.1274373 11.9414272,10.3640747 L11.9414272,10.3640747 Z M10.8549477,10.3644523 C10.9135719,11.1904654 11.0886551,11.9415107 11.3457386,12.5480765 C10.5589975,12.0819406 9.98577895,11.2934393 9.80801265,10.3645021 L9.80801265,10.3645021 Z M16.1919873,10.3645021 C16.0142389,11.2933461 15.4411175,12.0817824 14.6541093,12.5489748 C14.9113449,11.9415107 15.0864281,11.1904654 15.1450523,10.3644523 L15.1450523,10.3644523 Z M11.3453074,6.95240342 C11.0809428,7.57722758 10.9034585,8.35379326 10.8501473,9.20751504 L10.8501473,9.20751504 L9.79498011,9.20806942 C9.95380364,8.26186408 10.5214846,7.45432098 11.3101381,6.97332506 L11.3101381,6.97332506 Z M14.6544982,6.95206377 C15.4615249,7.43031103 16.0438323,8.24777974 16.2050199,9.20806942 L16.2050199,9.20806942 L15.1498527,9.20751504 C15.0983092,8.38210168 14.930691,7.62881245 14.6807028,7.01505656 L14.6807028,7.01505656 Z M13,6.5 L13.0328709,6.5058541 C13.1424767,6.54126183 13.3478393,6.73982677 13.5631019,7.17035201 C13.8280419,7.700232 14.0073395,8.41580283 14.0640728,9.20778089 L14.0640728,9.20778089 L11.9359272,9.20778089 C11.9926605,8.41580283 12.1719581,7.700232 12.4368981,7.17035201 C12.6760788,6.69199063 12.9030372,6.5 13,6.5 L13,6.5 Z" id="Combined-Shape" fill="#15777C"></path>
                                        </g>
                                    </g>
                                </g>
                            </g>
                        </g>
                    </g>
                </g>
            </g>
        </g>
    </g>
</svg>